<?xml version="1.0" encoding="utf-8"?>
<!-- Generator: Adobe Illustrator 24.0.0, SVG Export Plug-In . SVG Version: 6.00 Build 0)  -->
<svg version="1.1" id="Layer_1" xmlns="http://www.w3.org/2000/svg" xmlns:xlink="http://www.w3.org/1999/xlink" x="0px" y="0px"
	 width="160px" height="63px" viewBox="0 0 160 63" style="enable-background:new 0 0 160 63;" xml:space="preserve">
<style type="text/css">
	.st0{fill-rule:evenodd;clip-rule:evenodd;fill:#679CC5;}
	.st1{fill-rule:evenodd;clip-rule:evenodd;fill:#2874AD;}
	.st2{fill-rule:evenodd;clip-rule:evenodd;fill:#025B9E;}
	.st3{fill-rule:evenodd;clip-rule:evenodd;fill:#FFFFFF;}
	.st4{fill-rule:evenodd;clip-rule:evenodd;}
</style>
<title>Imported Layers 3</title>
<desc>Created with Sketch.</desc>
<g id="Components">
	<g id="_x34_51-Styles" transform="translate(-150.000000, -2962.000000)">
		<g id="Imported-Layers-3" transform="translate(150.000000, 2962.000000)">
			<path id="Fill-1" class="st0" d="M57.5,23.9C56,13.7,48.3,5,37.5,2.7C26.8,0.5,16.2,5.3,10.7,14C2.6,20.4-1.1,31.4,2.3,41.7
				c3.4,10.4,12.9,17.1,23.3,17.5c9.6,3.8,21,1.5,28.3-6.6C61.1,44.5,62.2,33.1,57.5,23.9"/>
			<path id="Fill-2" class="st1" d="M57.5,23.9c-1.4-2.6-3.2-5-5.6-7.1c-4.6-4.1-10.3-6.3-16.1-6.5c-5.3-2.1-11.4-2.4-17.2-0.5
				c-3,1-5.6,2.4-7.9,4.2c-1.6,2.5-2.7,5.2-3.4,8.3c-1.3,6-0.3,11.9,2.3,17c0.8,5.7,3.6,11.1,8.2,15.3c2.3,2.1,5,3.7,7.7,4.8
				c2.9,0.1,5.9-0.3,8.8-1.2C40.2,56.1,45,52.3,48,47.4c4.5-3.5,7.9-8.6,9.1-14.6C57.8,29.8,57.9,26.8,57.5,23.9"/>
			<path id="Fill-3" class="st2" d="M50.7,26.1c-2.4-7.5-8.1-13.1-14.9-15.8c-7.3-0.3-14.6,2.6-19.9,8.4c-5.3,5.8-7.3,13.4-6.3,20.5
				C13,45.7,19.2,50.7,27,52.3c7.7,1.6,15.3-0.4,21.1-4.9C51.9,41.3,53.2,33.5,50.7,26.1"/>
			<path id="Fill-4" class="st3" d="M22.9,36.8v3.3h-2.5v-3.3h-7.1v-2c1.9-3.4,2.9-7,2.9-9.5h2.6c0,2.5-1.1,6.2-3,9.3h4.7v-6.2h2.5
				v6.2H25v2.2H22.9"/>
			<path id="Fill-5" class="st3" d="M34.5,35.2c0-1.7-1.1-2.8-3-2.8c-1.3,0-2.3,0.5-3,1.4l-1.6-0.7l0.5-7.9h9v2.4h-6.8l-0.3,3.6
				c0.9-0.6,2-0.8,3-0.8c2.8,0,5,1.9,5,4.8c0,2.7-1.9,5.2-5.6,5.2c-2.5,0-4.4-1-5.5-3l2.2-1.2c0.7,1.3,1.9,1.9,3.3,1.9
				C33.3,38.1,34.5,37,34.5,35.2"/>
			<path id="Fill-6" class="st3" d="M38.8,40.1v-2.2h3.7v-9.8c-0.8,0.4-2.3,0.8-3.7,1l-0.3-2c2.2-0.4,3.6-1,4.6-1.9h2v12.7h3.5v2.2
				H38.8"/>
			<path id="Fill-7" class="st4" d="M74,40.1l-3.2-6h-4.3v6h-2.1V25.3H71c3.1,0,5,1.7,5,4.3c0,2.1-1.3,3.5-3.1,4.1l3.5,6.3H74
				L74,40.1z M70.9,27.2h-4.4v5.1H71c1.7,0,2.8-1,2.8-2.5C73.8,28.2,72.6,27.2,70.9,27.2L70.9,27.2z"/>
			<path id="Fill-8" class="st4" d="M89.1,34.8h-9.1c0.1,2.4,1.6,3.8,3.9,3.8c1.4,0,2.5-0.5,3.4-1.5l1.3,1.3c-1.2,1.3-2.7,2-4.8,2
				c-3.8,0-6-2.6-6-6c0-3.4,2.1-6.1,5.7-6.1c3.4,0,5.5,2.5,5.5,5.8C89.1,34.4,89.1,34.6,89.1,34.8 M87.1,33.3
				c-0.2-2.2-1.7-3.4-3.6-3.4c-2,0-3.4,1.4-3.6,3.4H87.1"/>
			<path id="Fill-9" class="st4" d="M95.1,40.4c-2.3,0-4.1-0.9-5.1-2.5l1.4-1.1c0.9,1.2,2.2,1.9,3.8,1.9c1.6,0,2.7-0.6,2.7-1.9
				c0-1.2-1.1-1.4-3.2-1.8c-2.3-0.4-4.2-1.1-4.2-3.4c0-2.4,2.1-3.4,4.4-3.4c2.2,0,3.8,1,4.7,1.9l-1.3,1.2c-0.8-1-2-1.5-3.4-1.5
				c-1.2,0-2.5,0.4-2.5,1.6c0,1.2,1.3,1.4,2.9,1.7c2.3,0.4,4.5,1,4.5,3.5C99.8,38.9,98.1,40.4,95.1,40.4"/>
			<path id="Fill-10" class="st4" d="M112.2,34.8h-9.1c0.1,2.4,1.6,3.8,3.9,3.8c1.4,0,2.5-0.5,3.4-1.5l1.3,1.3c-1.2,1.3-2.7,2-4.8,2
				c-3.8,0-6-2.6-6-6c0-3.4,2.1-6.1,5.7-6.1c3.4,0,5.6,2.5,5.6,5.8C112.3,34.4,112.2,34.6,112.2,34.8 M110.2,33.3
				c-0.2-2.2-1.7-3.4-3.6-3.4c-2,0-3.4,1.4-3.6,3.4H110.2"/>
			<path id="Fill-11" class="st4" d="M125.5,40.1c-0.4,0.2-1,0.2-1.3,0.2c-1.1,0-2.1-0.5-2.3-1.8c-1,1.5-2.6,1.9-4,1.9
				c-2.4,0-4-1.3-4-3.5c0-2.7,2.4-3.2,4-3.5c1.8-0.2,3.7-0.2,3.7-1.7c0-1.3-1.4-1.7-2.6-1.7c-1.3,0-2.6,0.4-3.6,1.2l-0.9-1.5
				c1.4-0.9,2.8-1.5,4.7-1.5c2.6,0,4.5,1.1,4.5,3.8v5.5c0,0.8,0.3,1.2,0.9,1.2c0.3,0,0.5-0.1,0.7-0.2L125.5,40.1L125.5,40.1z
				 M121.7,33.6c-0.8,1-1.9,1-3.4,1.2c-1.3,0.2-2.4,0.5-2.4,2c0,1.4,1.1,2,2.4,2c1.7,0,3.4-0.9,3.4-3.1V33.6L121.7,33.6z"/>
			<path id="Fill-12" class="st4" d="M133.1,30.6c-0.4-0.2-0.8-0.4-1.3-0.4c-1.5,0-3,1.4-3,3.9v6h-1.9V28.5h1.9v2
				c0.8-1.2,1.9-2.2,3.4-2.2c0.7,0,1.3,0.2,1.6,0.4L133.1,30.6"/>
			<path id="Fill-13" class="st4" d="M144,37.9c-1,1.4-2.6,2.4-4.7,2.4c-3.4,0-5.6-2.6-5.6-6.1c0-3.5,2.2-6.1,5.6-6.1
				c2.1,0,3.6,1,4.6,2.4l-1.5,1.2c-0.7-1.1-1.7-1.8-3.1-1.8c-2.3,0-3.6,1.8-3.6,4.3c0,2.5,1.4,4.3,3.6,4.3c1.5,0,2.5-0.7,3.2-1.7
				L144,37.9"/>
			<path id="Fill-14" class="st4" d="M146.1,40.1V24.2h1.9v6.2c1-1.4,2.3-2.2,4-2.2c2.5,0,4.1,1.6,4.1,4.4v7.5h-1.9v-7
				c0-1.4-0.4-3-2.6-3c-2,0-3.5,1.4-3.5,3.6v6.4H146.1"/>
			<path id="Fill-15" class="st4" d="M158,28.8C158,28.8,157.9,28.8,158,28.8l-0.4-0.7c0,0-0.5,0-0.5,0v0.6c0,0.1,0,0.1-0.1,0.1
				h-0.1c-0.1,0-0.1,0-0.1-0.1v-1.7c0-0.1,0-0.1,0.1-0.1h0.7c0.4,0,0.7,0.2,0.7,0.6c0,0.2-0.1,0.4-0.3,0.5l0.3,0.6c0,0,0,0.1,0,0.1
				c0,0-0.1,0-0.1,0H158L158,28.8z M157.6,27.8c0.2,0,0.3-0.1,0.3-0.3c0-0.2-0.1-0.3-0.3-0.3h-0.5v0.5H157.6L157.6,27.8z"/>
			<path id="Fill-16" class="st4" d="M157.5,29.6c-1,0-1.8-0.8-1.8-1.7c0-1,0.8-1.7,1.8-1.7c1,0,1.8,0.8,1.8,1.7
				C159.2,28.9,158.4,29.6,157.5,29.6 M157.5,26.5c-0.8,0-1.4,0.6-1.4,1.4c0,0.8,0.6,1.4,1.4,1.4c0.8,0,1.4-0.6,1.4-1.4
				C158.9,27.1,158.3,26.5,157.5,26.5"/>
		</g>
	</g>
</g>
</svg>
