<svg xmlns="http://www.w3.org/2000/svg" width="24" height="24" viewBox="0 0 24 24">
  <path fill="currentColor" fill-rule="evenodd" d="M11.0000589,11 L9.00005886,11 L9.00005886,19 L11.0000589,19 L11.0000589,11 Z M15.0000589,11 L13.0000589,11 L13.0000589,19 L15.0000589,19 L15.0000589,11 Z M3.20398612,10.6052126 L3.18905886,10.584 L3.11740336,10.4703216 L3.07694846,10.385165 L3.07694846,10.385165 L3.04896011,10.3097604 L3.04896011,10.3097604 L3.01368809,10.1657657 L3.01368809,10.1657657 L3.00103098,10.0460038 L3.0005935,9.96624936 L3.00405886,9.906 L3.01585061,9.82201855 L3.03097882,9.75237657 L3.03097882,9.75237657 L3.05355385,9.67701241 L3.05355385,9.67701241 L3.09717958,9.56963286 L3.09717958,9.56963286 C3.14845038,9.46239244 3.21797122,9.36596884 3.30174788,9.28421032 L3.40006234,9.19999739 L3.40006234,9.19999739 L11.4001349,3.19999739 C11.7556916,2.93333227 12.2445805,2.9333344 12.6001349,3.20000261 L20.6090111,9.20672978 C20.7021831,9.27836007 20.7823771,9.36603674 20.8454589,9.4656257 L20.9104483,9.5857888 L20.9104483,9.5857888 L20.9330078,9.63926649 L20.9330078,9.63926649 L20.9580223,9.71288567 L20.9580223,9.71288567 L20.984131,9.82220655 L20.9985815,9.94524001 L20.9985815,9.94524001 L20.9990984,10.0459822 L20.9864235,10.1657924 L20.9610926,10.2773962 L20.9610926,10.2773962 L20.9231724,10.3851509 L20.9231724,10.3851509 L20.8596168,10.5112004 L20.8596168,10.5112004 L20.7933291,10.6089522 C20.7216988,10.7021243 20.6340221,10.7823183 20.5344332,10.8454001 L20.4142701,10.9103895 L20.4142701,10.9103895 L20.3051031,10.9524462 L20.3051031,10.9524462 L20.2477035,10.9690717 L20.2477035,10.9690717 L20.1778523,10.9840721 L20.055819,10.9984668 L20.055819,10.9984668 L20.0000589,11 L20.0000589,11 L17.0000589,11 L17.0000589,19 L20.0000589,19 C20.5523436,19 21.0000589,19.4477153 21.0000589,20 C21.0000589,20.5522847 20.5523436,21 20.0000589,21 L4.00005886,21 C3.44777411,21 3.00005886,20.5522847 3.00005886,20 C3.00005886,19.4477153 3.44777411,19 4.00005886,19 L7.00005886,19 L7.00005886,11 L4.00005886,11 C3.93931451,11 3.87983517,10.9945839 3.8220774,10.9842082 L3.75243543,10.96908 L3.75243543,10.96908 L3.67707127,10.946505 L3.67707127,10.946505 L3.56969172,10.9028793 L3.56969172,10.9028793 C3.4624513,10.8516085 3.3660277,10.7820876 3.28426918,10.698311 L3.20398612,10.6052126 Z M12.000126,5.25 L6.99905886,9 L17.0000589,9 L12.000126,5.25 Z"/>
</svg>
