<svg id="svg2" xmlns="http://www.w3.org/2000/svg" xmlns:xlink="http://www.w3.org/1999/xlink" width="105" height="50" viewBox="0 0 105 50"><defs><style>.cls-1{fill:none;}.cls-2{clip-path:url(#clip-path);}</style><clipPath id="clip-path"><rect class="cls-1" x="-2.55" y="0.17" width="107.43" height="52.63"/></clipPath></defs><title>BMW-Group2</title><g id="g3717"><g class="cls-2"><g id="g103"><path id="path105" d="M89.62,31.16h4.56a3.79,3.79,0,0,1,2.61.84,2.93,2.93,0,0,1,1,2.34,3.1,3.1,0,0,1-1,2.46,3.72,3.72,0,0,1-2.58.88H89.62Zm0,18V41.36h5a8.46,8.46,0,0,0,5.71-1.84,6.44,6.44,0,0,0,2.25-5.16,6.64,6.64,0,0,0-2-5.05,7.64,7.64,0,0,0-5.43-1.83H85V49.2ZM64.36,40.73a9.1,9.1,0,0,0,2.17,6.45q2.32,2.53,7,2.54t6.81-2.34a9,9,0,0,0,2.36-6.65V27.48H78V41q0,4.78-4.43,4.78T69.06,41V27.48h-4.7Zm-8-7.82a8.76,8.76,0,0,1,1.52,5.45A8.33,8.33,0,0,1,56,44.14a5.54,5.54,0,0,1-8.28-.37,8.86,8.86,0,0,1-1.49-5.41,9,9,0,0,1,1.49-5.45A5,5,0,0,1,52,30.84a5.14,5.14,0,0,1,4.34,2.07M44.25,30c-1.86,2-2.78,4.8-2.78,8.36q0,5.87,3.33,8.86A10.43,10.43,0,0,0,52,49.72a10.1,10.1,0,0,0,7.79-3q2.81-3,2.8-8.32c0-3.54-.93-6.34-2.8-8.36a9.92,9.92,0,0,0-7.7-3,10.23,10.23,0,0,0-7.88,3m-17,1.16h4.53a4.72,4.72,0,0,1,2.79.67,2.55,2.55,0,0,1,.92,2.22q0,3-3.71,3H27.28Zm0,18V40.73H32L35.9,49.2h5.27L36.51,40a6,6,0,0,0,3.82-5.82,6.52,6.52,0,0,0-1.46-4.5Q37,27.48,33,27.48H22.6V49.2ZM18.19,29.66Q15.87,27,11,27a10,10,0,0,0-7.8,3.12Q.43,33.16.43,38.55c0,4,1.1,7,3.33,8.93a9.45,9.45,0,0,0,6.51,2.24q4.35,0,6.54-2.72l.49,2.2h3V37.71H12.24v3.4h3.49v1a3.25,3.25,0,0,1-1.42,2.73,5.67,5.67,0,0,1-3.44,1A5,5,0,0,1,6.7,44a8.49,8.49,0,0,1-1.49-5.4,9.64,9.64,0,0,1,1.42-5.64,4.84,4.84,0,0,1,4.19-2.08c2.52,0,4.2,1.32,5,4l4.4-1.08a10.21,10.21,0,0,0-2-4.06"/><path id="path107" d="M57.26,22.77l4-15.33,3.83,15.33h5.09L75.49,1.05H70.71L67.43,16.72,63.72,1.05H59.07L55.24,16.72,52.05,1.05h-4.9l5,21.72Zm-31,0V7.31l5.14,15.48h3.84L40.41,7.31V22.79h4.44V1.07H38.71L33.47,17.2,28.17,1.07H21.88V22.79ZM5.81,4.75h5A5.83,5.83,0,0,1,13,5.09a2.06,2.06,0,0,1,1.24,2.08A2.14,2.14,0,0,1,13.41,9a4.49,4.49,0,0,1-2.65.59H5.81Zm0,8.53h4.9a6.73,6.73,0,0,1,2.9.49,2.47,2.47,0,0,1,1.25,2.4,2.62,2.62,0,0,1-.79,2.13,5.37,5.37,0,0,1-3.36.8H5.81Zm4.81,9.51q9,0,9-6.53a5,5,0,0,0-3.48-5,4.76,4.76,0,0,0,2.8-4.65,4.81,4.81,0,0,0-2.3-4.35,9.12,9.12,0,0,0-5-1.17H1.2V22.79Z"/></g></g></g></svg>