<svg id="Layer_1" data-name="Layer 1" xmlns="http://www.w3.org/2000/svg" xmlns:xlink="http://www.w3.org/1999/xlink" width="70" height="70" viewBox="0 0 70 70"><defs><style>.cls-1{fill:url(#linear-gradient);}.cls-2{fill:#333;}.cls-3{fill:url(#radial-gradient);}.cls-4{fill:url(#linear-gradient-2);}.cls-5{fill:url(#radial-gradient-2);}.cls-6{fill:url(#radial-gradient-3);}.cls-7{fill:url(#radial-gradient-4);}.cls-8{fill:url(#radial-gradient-5);}.cls-9{fill:url(#radial-gradient-6);}.cls-10{fill:url(#radial-gradient-7);}.cls-11{fill:url(#radial-gradient-8);}.cls-12{fill:url(#radial-gradient-9);}.cls-13{fill:url(#linear-gradient-3);}.cls-14{fill:#c2d7e8;}.cls-15{fill:url(#linear-gradient-4);}.cls-16{fill:#12404f;}.cls-17{fill:url(#linear-gradient-5);}.cls-18{fill:url(#linear-gradient-6);}.cls-19{fill:url(#linear-gradient-7);}.cls-20{fill:url(#linear-gradient-8);}</style><linearGradient id="linear-gradient" x1="-5.07" y1="74.69" x2="69.04" y2="3.07" gradientTransform="matrix(1, 0, 0, -1, 0, 71)" gradientUnits="userSpaceOnUse"><stop offset="0" stop-color="#dff4ff"/><stop offset="0.1" stop-color="#d6eaf5"/><stop offset="0.27" stop-color="#bfd0d9"/><stop offset="0.49" stop-color="#98a5ac"/><stop offset="0.75" stop-color="#646b6e"/><stop offset="1" stop-color="#2b2b2b"/></linearGradient><radialGradient id="radial-gradient" cx="-0.39" cy="68.61" r="49.63" gradientTransform="matrix(1, 0, 0, -1, 0, 71)" gradientUnits="userSpaceOnUse"><stop offset="0" stop-color="#fff"/><stop offset="0.31" stop-color="#a8a8a8"/><stop offset="0.65" stop-color="#4f4f4f"/><stop offset="0.89" stop-color="#161616"/><stop offset="1"/></radialGradient><linearGradient id="linear-gradient-2" x1="871.5" y1="-1039.65" x2="918.7" y2="-1085.27" gradientTransform="matrix(-1, 0, 0, 1, 931.98, 1099.31)" gradientUnits="userSpaceOnUse"><stop offset="0" stop-color="#dff4ff"/><stop offset="0.09" stop-color="#d6eaf5"/><stop offset="0.23" stop-color="#bed0d9"/><stop offset="0.42" stop-color="#96a4ac"/><stop offset="0.65" stop-color="#5f686d"/><stop offset="0.91" stop-color="#1a1d1e"/><stop offset="1"/></linearGradient><radialGradient id="radial-gradient-2" cx="-9.31" cy="73.66" r="119.24" gradientTransform="matrix(1, 0, 0, -1, 0, 71)" gradientUnits="userSpaceOnUse"><stop offset="0" stop-color="#fff"/><stop offset="0.31" stop-color="#fdfdfd"/><stop offset="0.45" stop-color="#f6f6f6"/><stop offset="0.56" stop-color="#e9e9e9"/><stop offset="0.65" stop-color="#d7d7d7"/><stop offset="0.72" stop-color="#bfbfbf"/><stop offset="0.79" stop-color="#a2a2a2"/><stop offset="0.86" stop-color="gray"/><stop offset="0.92" stop-color="#575757"/><stop offset="0.97" stop-color="#2b2b2b"/><stop offset="1" stop-color="#141414"/></radialGradient><radialGradient id="radial-gradient-3" cx="-9.31" cy="73.66" r="119.25" xlink:href="#radial-gradient-2"/><radialGradient id="radial-gradient-4" cx="-9.32" cy="73.7" r="119.34" xlink:href="#radial-gradient-2"/><radialGradient id="radial-gradient-5" cx="12.05" cy="57.13" r="32.16" gradientTransform="matrix(1, 0, 0, -1, 0, 71)" gradientUnits="userSpaceOnUse"><stop offset="0" stop-color="#e6e6e6"/><stop offset="0.1" stop-color="#d6d6d6"/><stop offset="0.31" stop-color="#adadad"/><stop offset="0.59" stop-color="#6c6c6c"/><stop offset="0.93" stop-color="#121212"/><stop offset="1"/></radialGradient><radialGradient id="radial-gradient-6" cx="20.85" cy="52.81" r="46.77" gradientTransform="matrix(1, 0, 0, -1, 0, 71)" gradientUnits="userSpaceOnUse"><stop offset="0" stop-color="#fff"/><stop offset="0.34" stop-color="#fdfdfd"/><stop offset="0.48" stop-color="#f6f6f6"/><stop offset="0.58" stop-color="#eaeaea"/><stop offset="0.67" stop-color="#d8d8d8"/><stop offset="0.74" stop-color="#c2c2c2"/><stop offset="0.8" stop-color="#a6a6a6"/><stop offset="0.86" stop-color="#848484"/><stop offset="0.91" stop-color="#5f5f5f"/><stop offset="0.95" stop-color="#404040"/><stop offset="0.96" stop-color="#404040"/><stop offset="1" stop-color="#404040"/><stop offset="1"/></radialGradient><radialGradient id="radial-gradient-7" cx="7.11" cy="70.54" r="82.84" gradientTransform="matrix(1, 0, 0, -1, 0, 71)" gradientUnits="userSpaceOnUse"><stop offset="0.17" stop-color="#fff"/><stop offset="0.2" stop-color="#e0eff7"/><stop offset="0.24" stop-color="#b2d9ec"/><stop offset="0.29" stop-color="#8bc5e2"/><stop offset="0.34" stop-color="#6bb5da"/><stop offset="0.38" stop-color="#52a9d4"/><stop offset="0.44" stop-color="#41a0cf"/><stop offset="0.49" stop-color="#369bcd"/><stop offset="0.56" stop-color="#39c"/><stop offset="0.61" stop-color="#3396c8"/><stop offset="0.66" stop-color="#328ebc"/><stop offset="0.7" stop-color="#3180a8"/><stop offset="0.75" stop-color="#2f6d8c"/><stop offset="0.8" stop-color="#2d5468"/><stop offset="0.85" stop-color="#2a373d"/><stop offset="0.87" stop-color="#292929"/></radialGradient><radialGradient id="radial-gradient-8" cx="7.11" cy="70.54" r="82.84" xlink:href="#radial-gradient-7"/><radialGradient id="radial-gradient-9" cx="12.49" cy="56.73" r="31.55" xlink:href="#radial-gradient-5"/><linearGradient id="linear-gradient-3" x1="30.83" y1="64.6" x2="61.6" y2="34.87" gradientTransform="matrix(1, 0, 0, -1, 0, 71)" gradientUnits="userSpaceOnUse"><stop offset="0" stop-color="#f0f4ff"/><stop offset="0.11" stop-color="#ebeff9"/><stop offset="0.25" stop-color="#dce0ea"/><stop offset="0.4" stop-color="#c4c7cf"/><stop offset="0.57" stop-color="#a2a4ab"/><stop offset="0.75" stop-color="#76777c"/><stop offset="0.93" stop-color="#414243"/><stop offset="1" stop-color="#2b2b2b"/></linearGradient><linearGradient id="linear-gradient-4" x1="5.86" y1="39.5" x2="36.63" y2="9.77" xlink:href="#linear-gradient-3"/><linearGradient id="linear-gradient-5" x1="20.75" y1="50.11" x2="36.7" y2="34.69" gradientTransform="matrix(1, 0, 0, -1, 0, 71)" gradientUnits="userSpaceOnUse"><stop offset="0" stop-color="#c2d7e8"/><stop offset="0.13" stop-color="#bacfe1"/><stop offset="0.34" stop-color="#a4bacd"/><stop offset="0.6" stop-color="#8098ac"/><stop offset="0.89" stop-color="#4e697f"/><stop offset="1" stop-color="#3a566d"/></linearGradient><linearGradient id="linear-gradient-6" x1="12.76" y1="46.33" x2="43.21" y2="16.9" gradientTransform="matrix(1, 0, 0, -1, 0, 71)" gradientUnits="userSpaceOnUse"><stop offset="0" stop-color="#f0f4ff"/><stop offset="0.1" stop-color="#e8ebf6"/><stop offset="0.26" stop-color="#d1d4dd"/><stop offset="0.46" stop-color="#abaeb5"/><stop offset="0.7" stop-color="#78797d"/><stop offset="0.96" stop-color="#363637"/><stop offset="1" stop-color="#2b2b2b"/></linearGradient><linearGradient id="linear-gradient-7" x1="35.2" y1="35.41" x2="45.89" y2="25.09" gradientTransform="matrix(1, 0, 0, -1, 0, 71)" gradientUnits="userSpaceOnUse"><stop offset="0" stop-color="#d9def0"/><stop offset="0.12" stop-color="#d4daec"/><stop offset="0.26" stop-color="#c7cfe2"/><stop offset="0.41" stop-color="#b0bcd1"/><stop offset="0.57" stop-color="#90a1b8"/><stop offset="0.72" stop-color="#677f99"/><stop offset="0.88" stop-color="#355674"/><stop offset="0.97" stop-color="#173d5d"/></linearGradient><linearGradient id="linear-gradient-8" x1="24.28" y1="57.5" x2="54.7" y2="28.1" xlink:href="#linear-gradient-3"/></defs><title>BMW2</title><path class="cls-1" d="M35,.08A34.93,34.93,0,1,0,69.9,35,34.93,34.93,0,0,0,35,.08Zm0,68.11A33.18,33.18,0,1,1,68.15,35,33.17,33.17,0,0,1,35,68.19Z"/><path class="cls-2" d="M68.4,35A33.43,33.43,0,1,1,35,1.58,33.43,33.43,0,0,1,68.4,35Z"/><path class="cls-3" d="M68.15,35A33.18,33.18,0,1,1,35,1.83,33.17,33.17,0,0,1,68.15,35Z"/><path class="cls-4" d="M57.22,35A22.25,22.25,0,1,1,35,12.76,22.24,22.24,0,0,1,57.22,35Z"/><polygon points="35.86 12.16 38.17 6.04 38.17 12.16 39.93 12.16 39.93 3.39 37.29 3.39 34.89 9.67 34.91 9.67 32.52 3.39 29.88 3.39 29.88 12.16 31.63 12.16 31.63 6.04 33.94 12.16 35.86 12.16"/><polygon points="59.95 16.09 56.95 20.47 61.66 18.15 62.94 19.68 55.52 23.41 54.03 21.59 56.9 17.26 56.88 17.24 52.1 19.28 50.59 17.48 55.59 10.86 56.87 12.4 53.73 16.61 58.58 14.45 59.95 16.09"/><path class="cls-2" d="M19.43,14.42a2.24,2.24,0,0,0-2.82-.26,2,2,0,0,0,0-1.31,3.29,3.29,0,0,0-1-1.21c-1.18-1-2.42-.14-3.3.91l-4.29,5.1,6.73,5.65,4.52-5.38c1-1.23,1.19-2.45.1-3.5Zm-8.7,2.46,2.57-3.07a1.05,1.05,0,0,1,1.41,0,.93.93,0,0,1,.15,1.35l-2.54,3Zm7.09.51-2.68,3.19-1.68-1.41L16.16,16a1.1,1.1,0,0,1,1.66,1.44Z"/><polygon class="cls-5" points="35.88 11.82 38.19 5.7 38.19 11.82 39.95 11.82 39.95 3.05 37.31 3.05 34.91 9.33 34.93 9.33 32.53 3.05 29.89 3.05 29.89 11.82 31.65 11.82 31.65 5.7 33.96 11.82 35.88 11.82"/><polygon class="cls-6" points="59.97 15.51 56.97 19.88 61.68 17.56 62.95 19.09 55.54 22.82 54.05 21 56.92 16.67 56.9 16.65 52.12 18.7 50.61 16.89 55.61 10.28 56.88 11.81 53.75 16.02 58.6 13.86 59.97 15.51"/><path class="cls-7" d="M19.12,14.25A2.22,2.22,0,0,0,16.3,14a1.88,1.88,0,0,0,0-1.31,3,3,0,0,0-1-1.21c-1.18-1-2.41-.15-3.3.91l-4.28,5.1,6.73,5.65L19,17.75c1-1.23,1.2-2.45.11-3.5Zm-8.7,2.46L13,13.64a1.05,1.05,0,0,1,1.4,0A.92.92,0,0,1,14.55,15L12,18Zm7.09.51-2.68,3.19L13.15,19l2.7-3.22a1.1,1.1,0,0,1,1.66,1.44Z"/><path class="cls-8" d="M13.46,35A21.51,21.51,0,1,1,35,56.52,21.51,21.51,0,0,1,13.46,35Z"/><path class="cls-9" d="M14.08,35A20.89,20.89,0,1,1,35,55.9,20.89,20.89,0,0,1,14.08,35Z"/><path class="cls-10" d="M14.05,35H35V14.09A20.92,20.92,0,0,0,14.05,35Z"/><path class="cls-11" d="M35,35V55.93A20.92,20.92,0,0,0,55.89,35Z"/><polygon class="cls-12" points="56.06 34.64 35.34 34.64 35.34 13.91 34.6 13.91 34.6 34.64 13.88 34.64 13.88 35.38 34.6 35.38 34.6 56.1 35.34 56.1 35.34 35.38 56.06 35.38 56.06 34.64"/><path class="cls-13" d="M35.34,14.5A20.51,20.51,0,0,1,55.48,34.64h.37A20.89,20.89,0,0,0,35.34,14.13v.37Z"/><path class="cls-14" d="M14.43,34.63A20.53,20.53,0,0,1,34.59,14.47V14.1A20.91,20.91,0,0,0,14.05,34.63Z"/><path class="cls-15" d="M34.6,55.52A20.51,20.51,0,0,1,14.46,35.38h-.37A20.89,20.89,0,0,0,34.6,55.89v-.37Z"/><path class="cls-16" d="M55.48,35.38A20.51,20.51,0,0,1,35.34,55.52v.37A20.89,20.89,0,0,0,55.85,35.38Z"/><polygon class="cls-17" points="34.2 14.1 34.2 34.23 14.07 34.23 14.07 34.63 34.2 34.63 34.6 34.63 34.6 34.23 34.6 14.1 34.2 14.1"/><polygon class="cls-18" points="34.17 55.69 34.17 35.8 14.24 35.8 14.24 35.41 34.17 35.41 34.56 35.41 34.56 35.8 34.56 55.69 34.17 55.69"/><polygon class="cls-19" points="35.77 55.69 35.77 35.8 55.66 35.8 55.66 35.41 35.77 35.41 35.38 35.41 35.38 35.8 35.38 55.69 35.77 55.69"/><polygon class="cls-20" points="35.77 14.28 35.77 34.17 55.66 34.17 55.66 34.56 35.77 34.56 35.38 34.56 35.38 34.17 35.38 14.28 35.77 14.28"/></svg>