<svg id="Layer_1" xmlns="http://www.w3.org/2000/svg" viewBox="0 0 141.7 141.7"><style>.st0{fill:#101e1e}.st1{fill:#1657ea}.st2{fill:#fff}</style><path class="st0" d="M71 2.4C33.2 2.4 2.5 33.1 2.5 70.9s30.7 68.5 68.5 68.5 68.5-30.7 68.5-68.5S108.8 2.4 71 2.4"/><path class="st1" d="M115.9 85.6c0-3 2.4-5.5 5.5-5.5 3 0 5.5 2.4 5.5 5.5 0 3-2.4 5.5-5.5 5.5-3.1-.1-5.5-2.5-5.5-5.5"/><path class="st2" d="M42.5 93.8c-12.6 0-22.9-10.3-22.9-22.9C19.6 58.3 29.8 48 42.5 48c2.4 0 4.9.4 7.2 1.1 2.5.8 3.9 3.6 3.1 6.1-.8 2.5-3.6 3.9-6.1 3.1-1.3-.4-2.7-.7-4.1-.7-7.3 0-13.2 5.9-13.2 13.2 0 7.3 5.9 13.2 13.2 13.2 6.8 0 10.6-3.6 13.9-12.7l7.2-20.2c.7-1.9 2.5-3.2 4.5-3.2s3.8 1.2 4.6 3.1l8.3 21.5L89.5 51c.7-1.9 2.5-3.1 4.5-3.1h.1c2 0 3.8 1.3 4.5 3.2l12 33.4c.9 2.5-.4 5.3-2.9 6.2-2.5.9-5.3-.4-6.2-2.9l-7.6-21.2-8.2 21c-.7 1.9-2.5 3.1-4.5 3.1s-3.8-1.2-4.5-3.1l-8.1-21-2.8 7.9c-3.3 8.4-8.8 19.3-23.3 19.3"/></svg>