<?xml version="1.0" encoding="utf-8"?>
<!-- Generator: Adobe Illustrator 24.0.0, SVG Export Plug-In . SVG Version: 6.00 Build 0)  -->
<svg version="1.1" id="图层_1" xmlns="http://www.w3.org/2000/svg" xmlns:xlink="http://www.w3.org/1999/xlink" x="0px" y="0px"
	 width="155.3px" height="60px" viewBox="0 0 155.3 60" style="enable-background:new 0 0 155.3 60;" xml:space="preserve">
<style type="text/css">
	._x005B_默认_x005D_{fill:#FFFFFF;stroke:#000000;stroke-miterlimit:10;}
	.st0{fill:#1F1F1D;}
	.st1{fill:#D62929;}
</style>
<g id="XMLID_19_">
	<path class="st0" d="M72.4,47.3c-0.6-0.3-1.1-0.8-1.2-2c-2.6,2.5-5.9,2.2-7.2,1c-1.3-1.2-1.7-2.9-1.6-4.9c0-1.3,0.3-2.8,0.8-4.1
		c0.8-2.1,2.1-4,3.5-5c3.4-2.5,8-2,10.9-0.7l-2.3,9.3c-0.3,1.2-0.5,2.8,0.4,4L72.4,47.3z M72.9,34.1c-2-1-3.5-0.1-4.6,1.4
		c-1,1.3-3.4,8-0.5,8.6c0.7,0.2,2.8-0.7,3.4-3L72.9,34.1z M98.6,44.9c-2.1,2.2-7.2,2.9-8.9,1.4c-3.2-2.8-1.4-7.9-0.9-9.7
		c0.7-2.5,4.3-7.6,10.5-5.5l1.3-6.2l4.1-0.5l-2.9,13.3C101.4,40.3,100.5,43,98.6,44.9 M98.5,34.5c-1.6-0.9-3.1-0.9-4.3,0.4
		c-0.9,0.9-1.4,2.5-1.8,4.1c-0.3,1.1-0.6,2.2-0.5,3c0.1,1,0.4,1.5,1.6,1.8c0.7,0.2,2.9-0.7,3.4-2.7L98.5,34.5z M85.1,24.4
		c-1.5,0.1-2.7,1-2.7,1.9c0,0.9,1.2,1.6,2.7,1.5c1.5-0.1,2.7-1,2.7-1.9C87.8,24.9,86.6,24.2,85.1,24.4 M78.9,46.8h4.1l3.6-16.1
		l-4.4,0.4L78.9,46.8z M56.7,44.9c1.9-1.9,2.8-4.6,3.3-7.2l2.9-13.3L58.7,25l-1.3,6.2c-6.3-2.1-9.8,3-10.5,5.5
		c-0.5,1.8-2.3,6.9,0.9,9.7C49.5,47.8,54.5,47.1,56.7,44.9 M56.6,34.5L55,41.1c-0.5,2-2.7,2.8-3.4,2.7C50.4,43.5,50.1,43,50,42
		c-0.1-0.8,0.2-2,0.5-3c0.4-1.5,1-3.1,1.8-4.1C53.5,33.6,55,33.5,56.6,34.5 M26.7,33.3c2.4-0.4,2.6,2.4,1.9,5.3
		c-0.7,2.9-2.3,5.9-4.7,5.3c-1.6-0.4-1.4-3-0.9-5.5C23.6,36.1,25,33.6,26.7,33.3 M26.7,30.4c-3.5,0.5-7,2.7-8.1,8.2
		c-1.4,6.7,2.5,8.3,5.4,8.3c2.9,0,7.6-1,9-8.2C34.4,32,30.5,29.9,26.7,30.4 M38.7,46.6h-4.2l2.1-10.1c0.4-1.6,0.5-3.4,0.2-5.2
		l4.3-0.6c0,0.7,0,1.5,0.1,2.1c1-1.4,3.8-3,5.9-2.1l-1.7,3.5c-1-0.3-3.5-0.1-4.4,2.5L38.7,46.6z M16.2,45c-2.5,1.3-5,2.2-8,1.9
		c-2.6-0.3-6.4-1.8-6.3-7.7c0.1-3.6,1.3-7.9,3.8-10.8c1.3-1.6,3.4-3,5.9-3.6c2.9-0.7,6.2-0.4,8,1.3l-2.5,2.7
		c-1.9-1.4-5.4-1.5-7.4,0.9c-1.8,2.1-2.9,6.7-3.1,8.8c-0.2,2.6,0.4,4.4,2,4.9c1.3,0.4,3.9,0.3,5.8-1.3L16.2,45z"/>
	<path class="st1" d="M124.9,30.3c-7.8-1.8-13.1-6.5-16.1-11.8c-1.3-2.3-2.2-4.8-2.2-7.7c0-1.9,0.2-4.1,0.9-6.3
		c0-0.4,0.3-0.3,0.7-0.4c0.3-0.1,0.6-0.4,1.3-0.6c0.5-0.1,1-0.1,1.5-0.2c0.3-0.1,0.5-0.3,0.8-0.4c0.2-0.1,0.5-0.2,0.7-0.3
		c0.3-0.1,0.5,0,0.7-0.1c0.3-0.1,0.7,0.1,0.7,0.4c-2,6.3-0.4,11.5,2.4,15.3c2.7,3.7,6.5,6.2,9.2,7.5c-2.9-1.2-5.7-3.1-8.5-5.6
		c1.7,1.7,3.4,3.2,5.4,4.4c1.9,1.2,3.9,1.9,6.1,2.9c0,0.3-0.5,0.1-0.5,0.3c0,0.2,0.4,0.2,0.2,0.5c-0.2,0.2-0.5,0.2-0.7,0.4
		c-0.1,0.2,0.1,0.4,0.1,0.5c0,0.2-0.3,0.3-0.4,0.5c-0.1,0.1-0.2,0.2-0.3,0.2c-0.1,0.1-0.1,0.2-0.2,0.2c-0.2,0.1-1.1,0-1.3,0.1
		c-0.1,0.1,0.1,0.2,0,0.2C125.4,30.3,125.1,30.4,124.9,30.3 M117.7,27.1c-3.5-2.7-6.2-5.5-8-8.4c-1.9-3.2-2.7-6.6-2.7-10.2
		c-0.2,1.6-0.1,3.1,0.1,4.7C108.5,19.2,112.6,24.1,117.7,27.1"/>
	<path class="st1" d="M141.3,16.1c-3.8-2.3-6.6-3.2-10-3.4c-3-0.1-6.4,0.2-8.9,1.8c-0.4,0.2-0.7,0.4-1.1,0.3
		c-0.3-0.1-0.1-0.9-0.2-1.1c-0.3-0.4,0.2-1.1,0.1-1.4c-0.1-0.5,0.7-0.8,0.4-1.2c-0.4-0.5-0.2-1-0.1-1.6c0.1-0.3-0.4-0.3-0.2-0.5
		c0.2-0.3,0.5-1.1,0.7-1.4c0.7-0.8,1.9-1.3,3.1-1.6c-0.6,0.3-1.9,0.9-1.8,1.3c0.6-0.2,1.4-0.5,2.2-0.8c0.2-0.1,0.2-0.4,0.4-0.5
		c0.2-0.1,0.4,0.3,0.6,0.2c0.1,0,0.1-0.4,0.2-0.5c0.2-0.1,0.6-0.3,0.6-0.1c-0.2,0.4-0.2,0.5,0.1,0.5c0.2,0,0.2-0.4,0.5-0.5
		c0.2-0.1,0.8-0.4,0.7-0.2c-0.2,0.4-0.6,0.6-0.3,0.6c0.7,0,1.5,0,1.5-0.1c0-0.1-0.6-0.4-0.5-0.5c0.6-0.1,1.1-0.1,1.7-0.1
		c0.3,0,0.3,1,0.4,1c0.2,0,0.3,0,0.5,0.1c0.2,0-0.1-0.6,0-0.7c0-0.1,0.5,0,0.6,0c0.6,0.1,0.7,0.6,1.4,0.9c0.1,0,1.3,0,1.4,0
		c1.1,0.4,1.3,0.6,2.2,0.9c3.7,1.2,7.4,3.5,11.4,7.1c-3.4-3.8-7.4-6.2-12-7.8c-0.2-0.1-0.5,0-0.7-0.1c-0.2-0.1-0.3-0.2-0.5-0.3
		c-0.4-0.1-0.9-0.1-1.3-0.3c-0.9-0.3-1.8-0.6-2.8-0.8c3.8,0.1,7.6,1.5,11,3.5c2.8,1.6,5.2,3.5,7.2,5.6c1.6,1.6,2.6,3.2,3.5,4.9
		c0.1,0.4-0.1,0.5-0.3,0.5c-0.2,0-0.4,0-0.5,0.1c-0.1,0.1-0.1,0.2-0.1,0.3c-0.1,0.1-0.3,0.2-0.4,0.3c-0.1,0-0.7-0.7-0.7-0.6
		c0,0.2-0.3,0.2-0.5,0.1c-0.6-0.9-1.3-1.4-2.1-2.2l0.3,1.2l-0.9-0.8c0.1,0.3,0.2,0.6,0.1,0.9c-1.3-1.3-2.6-2.5-4.7-3.7
		c0.9,0.9,2.1,1.6,2.7,2.7c-1-0.8-2-1.6-3.1-2.2c1.1,0.8,1.9,1.5,2.7,2.5c-2.3-2-4.7-3.4-7.3-4.3C139.9,14.7,140.9,15.4,141.3,16.1
		 M130.4,5.8c-0.1,0-0.1,0.1-0.1,0.2v0.2c0,0.1,0,0.1,0.1,0.1h0.4c0.1,0,0.1,0,0.1-0.1V6c0-0.1-0.1-0.2-0.2-0.2H130.4z"/>
	<path class="st1" d="M119.5,57.6c1.6-0.9,2.5-1.4,4-2.6c-1.8,1.1-2.8,1.6-4.6,1.8c1.8-0.9,1.5-1.3,2.3-1.8c0.6-0.4,1.1-0.5,1.7-0.8
		c1.9-1.2,3.7-2.6,5.5-4.1c-1.3,1-2.7,2.1-4.2,2.8c-0.6,0.3-1.2,0.4-1.8,0.6c4.4-2.8,7.4-6.8,10.5-10.6c-2.3,2.6-4.5,5.2-7.3,7.7
		c1.7-1.8,3.3-3.6,4.8-5.5c-1.4,1.8-3.1,3.4-5.2,4.6c3.2-3.2,6-7.2,8.6-11c-1.9,2.5-3.8,5-5.4,6.7c1.7-2.2,3-4.3,4.1-6.5
		c-1.3,2.1-2.7,4.2-4.6,6.1c3.9-5.9,7.2-12,6.3-19c0.1,4.5-1,8.5-2.9,12.2c2.4-4.9,3.3-9.9,2-15c-0.4-1.2-0.1-1.5,0.5-1.5
		c0.2,0,0.8,0.3,1.3,0.4c0.3,0,0.6-0.1,0.8,0c0.2,0.1,0.4,0.4,0.9,0.5c0.8,0.2,2,0.4,2.5,0.6c1.2,0.6,1.6,1.2,2.2,3.2
		c0.2,6.6-1.5,12.1-4.3,16.7C133.3,49.2,128,54.7,119.5,57.6 M125.4,53.9c3.8-2.2,7.2-5.2,9.8-9.1c2.4-3.6,4.8-7.2,5.4-13.4
		C138.2,41.9,132.5,48.9,125.4,53.9"/>
</g>
</svg>
