<?xml version="1.0" encoding="utf-8"?>
<!-- Generator: Adobe Illustrator 24.0.0, SVG Export Plug-In . SVG Version: 6.00 Build 0)  -->
<svg version="1.1" id="Layer_1" xmlns="http://www.w3.org/2000/svg" xmlns:xlink="http://www.w3.org/1999/xlink" x="0px" y="0px"
	 width="84px" height="110px" viewBox="0 0 84 110" style="enable-background:new 0 0 84 110;" xml:space="preserve">
<style type="text/css">
	.Drop_x0020_Shadow{fill:none;}
	.Round_x0020_Corners_x0020_2_x0020_pt{fill:#FFFFFF;stroke:#000000;stroke-miterlimit:10;}
	.Live_x0020_Reflect_x0020_X{fill:none;}
	.Bevel_x0020_Soft{fill:url(#SVGID_1_);}
	.Dusk{fill:#FFFFFF;}
	.Foliage_GS{fill:#FFDD00;}
	.Pompadour_GS{fill-rule:evenodd;clip-rule:evenodd;fill:#51AEE2;}
</style>
<linearGradient id="SVGID_1_" gradientUnits="userSpaceOnUse" x1="-395.7658" y1="-251.1897" x2="-395.0587" y2="-250.4826">
	<stop  offset="0" style="stop-color:#E6E6EB"/>
	<stop  offset="0.1738" style="stop-color:#E2E2E6"/>
	<stop  offset="0.352" style="stop-color:#D5D4D8"/>
	<stop  offset="0.5323" style="stop-color:#C0BFC2"/>
	<stop  offset="0.7139" style="stop-color:#A4A2A4"/>
	<stop  offset="0.8949" style="stop-color:#828282"/>
	<stop  offset="1" style="stop-color:#6B6E6E"/>
</linearGradient>
<g>
	<path d="M79.4,37.8c-0.2-0.8-0.2-1.8-0.3-2.7c-0.1-1.4-0.1-2.8-0.2-4.3c-0.2-2.1-0.5-4.3-0.9-6.4c-0.2-1.4-0.5-2.8-0.9-4.2
		c-0.3-1.2-0.9-2.4-1.4-3.6c-1.2-3.3-3.1-6.1-6.1-8c-2-1.2-3.9-2.6-6-3.6c-1.7-0.9-3.6-1.5-5.4-2.3c-2.4-1-4.8-1.8-7.4-2
		c-2.1-0.1-4.1-0.5-6.2-0.7C43.8,0.1,42.9,0,42,0c-1.8,0.1-3.6,0.2-5.4,0.5c-1.7,0.2-3.4,0.6-5,1.1c-1.7,0.5-3.3,1.2-4.9,1.9
		c-1.1,0.4-2.1,0.7-3.2,1.1c-1.3,0.6-2.6,1.3-3.9,1.9c-0.5,0.2-1,0.5-1.4,0.8c-1.7,1.2-3,3-4.9,3.9c-0.1,0-0.1,0.1-0.2,0.2
		c-1.1,1.4-2.4,2.8-3.4,4.3c-0.8,1.2-1.4,2.6-2,4c-0.5,1.2-0.6,2.6-1.2,3.7c-1.3,2.4-1.1,5-1.9,7.5c-0.3,1.2-0.4,2.4-0.5,3.6
		c-0.1,1.5-0.2,3-0.1,4.5c0,1.1,0.2,2.3,0.3,3.2c-0.2,3,0.4,5.6,1.3,8.1c1,2.9,2.1,5.7,3.3,8.5c1,2.2,2.5,4.2,4.4,5.7
		c1.2,0.9,2.3,1.8,3.5,2.8c1.7,1.4,3.2,2.8,4.9,4.1c1.5,1,3,2,4.7,2.6c0.1,0.1,0.3,0.1,0.4,0.1c0.1-1.6,0.3-3.2,0.4-4.8
		c0.3-2.8,0.6-5.6,0.9-8.4c0.2-1.8,0.3-3.5,0.3-5.3c0-2.6,0-5.1-0.1-7.7c0-0.4-0.3-0.9-0.6-1.2C27,46.1,26,45.6,25.3,45
		c-0.7-0.6-1.3-1.2-1.9-2c-0.5-0.7-1-1.4-1.5-2.2c0,0,0,0,0-0.1c-0.1-0.9-0.4-1.9-0.4-2.8c0-1,0.1-2,0.2-2.9c0.3-2,0.5-3.9,0.9-5.9
		c0.2-0.8,0.6-1.6,1-2.4c0.8-1.4,1.7-2.9,2.7-4.1c0.8-0.9,1.7-1.9,3-2c0.8-0.1,1.6,0.3,2.4,0.5c2.1,0.6,3.6,2,4.3,4.1
		c0.5,1.5,1.1,2.9,1.5,4.3c0.2,0.8,0.3,1.7,0.5,2.5c0.3,1.4,0.6,2.7,0.9,4.1c0,0.1,0,0.2,0,0.2c-0.2,1.3-0.3,2.7-0.8,4
		c-0.4,1.2-1.1,2.3-1.8,3.3c-0.8,1.2-1.8,2.1-3.2,2.6c-0.7,0.2-0.9,0.7-0.9,1.3c0,1,0,2,0.1,3.1c0,1.3,0,2.7,0.1,4
		c0,1,0.1,2.1,0.1,3.1c0.1,3,0,6.1,0.1,9.1c0.1,1.6,0.3,3.2,0.5,4.8c0.2,1.5,0.4,3,0.7,4.5c1.9,0.4,3.9,0.3,5.8,0.4
		c2.4,0.1,4.8-0.2,7.1-0.3c1.7-0.1,3.4-0.4,5-0.8c0.3-1.4,0.6-2.8,0.7-4.3c0.1-1.7,0.4-3.3,0.5-4.9c0.1-1.4,0-2.9,0-4.3
		c0-0.6,0.1-1.2,0.1-1.7c0-1.5,0-3.1,0-4.6c0-1.4,0.1-2.9,0.1-4.3c0-1.6-0.2-3.2-0.3-4.8c-1-0.3-1.8-0.4-2.3-1.3
		c-0.2-0.3-0.6-0.6-1.1-0.6c-0.3-0.7-0.4-1.7-0.9-2.5C48,41,48,39.9,48,38.8c-0.1-3.9,0.3-7.7,1-11.6c0.3-1.6,0.4-3.3,0.6-4.9
		c0.1-1.2,0.2-1.3,1.5-1.1c-0.1,1.3-0.2,2.6-0.3,3.9c-0.1,1.2-0.2,2.4-0.4,3.6c-0.2,1.5-0.3,3.1-0.5,4.6c-0.1,1.3-0.2,2.6,0.2,3.9
		c0.2,0.5,0.4,1,1,0.9c0.6-0.1,0.7-0.6,0.7-1.2c0.1-4.6,0.1-9.3,0.2-13.9c0-0.5,0-1,0-1.4c0.2-0.2,0.4-0.3,0.7-0.5
		c0.5,0.3,0.8,0.7,0.8,1.3c0,1.3-0.1,2.6-0.1,3.9c0,2.6,0.1,5.2,0.2,7.9c0,0.8,0,1.6,0.1,2.3c0.1,0.6,0.3,1.1,0.4,1.7
		c0.1,0,0.2,0,0.3,0.1c0.1-0.4,0.4-0.9,0.4-1.3C55,36,55,35.3,55,34.5c0-3.5,0-7.1,0-10.6c0-0.5,0-1.1-0.1-1.6c0-0.8,0.4-1.2,1.4-1
		c0,2,0.1,4.1,0.1,6.1c0,2.4,0.1,4.8,0,7.2c0,1.1,0.1,2.1,0.7,3.2c0.6-1.3,1.1-2.6,1.1-4c0.1-3,0-6.1-0.3-9.1
		c-0.1-0.9,0-1.8,0.1-2.7c0-0.4,0.4-0.8,0.6-1.1c0.1,0,0.2,0,0.3,0c0.1,0.3,0.4,0.6,0.4,0.9c0.4,4.3,1,8.7,1.2,13.1
		c0.1,2.1,0.1,4.3-0.5,6.5c-0.2,0.7-0.1,1.4-0.5,2.1c-0.5,0.8-1,1.5-1.8,2c-0.2,0.2-0.5,0.5-0.5,0.8c-0.1,0.9,0,1.8,0,2.7
		c0,1.8-0.1,3.6-0.1,5.4c0,2.6,0.1,5.1,0.1,7.7c-0.1,3.4,0.5,6.7,1,10.1c0,0.2,0.1,0.5,0.1,0.7c1.4-0.6,2.8-1.3,4.2-2
		c1.2-0.6,2.4-1.5,3.5-2.3c0.9-0.7,1.9-1.4,2.6-2.2c0.7-0.8,1.1-1.8,1.6-2.6c0.6-0.8,1.2-1.6,1.8-2.4c2.2-2.9,3.7-6.2,5.2-9.6
		c0.2-0.4,0.4-0.8,0.5-1.2c0.6-2.4,1.1-4.9,1.7-7.3C80,41.4,80,39.6,79.4,37.8z"/>
	<g>
		<g>
			<path d="M11.5,107.5c0-1.2,0-3.3-0.1-6.1c-0.1-2.8-0.2-5.4-0.3-7.7c-0.1-2.3-0.3-3.5-0.4-3.7c0-0.3,0.1-0.5,0.2-0.7
				c0.1-0.2,0.3-0.4,0.4-0.5c0.2-0.1,0.4-0.2,0.6-0.2c0.3-0.1,0.5-0.1,0.7-0.1c0.1,0,0.4,0,0.7,0c0.4,0,0.7,0.1,0.9,0.2
				c0.2,0.1,0.3,0.4,0.3,0.7c0,0.2-0.1,0.3-0.2,0.4C14.1,90,14,90,13.7,90l-0.3,0c-0.1,0-0.2,0-0.4,0c-0.5,0-0.8,0.1-0.8,0.3
				c0,0.8,0.1,2.1,0.2,3.7c0.1,1.6,0.2,2.8,0.2,3.6c0,0,0.2-0.1,0.6-0.2c0.4-0.1,0.7-0.1,0.9-0.1c0.2,0,0.4,0.1,0.5,0.3
				c0.1,0.2,0.2,0.4,0.2,0.6c0,0.3-0.1,0.4-0.3,0.5c-0.2,0.1-0.3,0.1-0.4,0.2C14.2,99,14,99,13.9,99c-0.3,0-0.6,0.1-0.8,0.1l-0.3,0
				c0,0.9,0.1,2.4,0.3,4.4c0.2,1.9,0.3,3.4,0.3,4.5l0,0.1l0,0.1c0,0.1,0.1,0.2,0.1,0.3c0,0.2-0.1,0.4-0.3,0.6
				c-0.2,0.1-0.4,0.2-0.7,0.2C11.8,109.3,11.5,108.7,11.5,107.5z"/>
			<path d="M20.3,109.5c-0.4-0.3-0.8-0.8-1-1.3c-0.3-0.5-0.5-1.1-0.7-1.9c-0.2-0.7-0.4-1.5-0.5-2.2c-0.1-0.6-0.2-1.3-0.3-2.1
				c-0.1-0.8-0.1-1.4-0.1-2c0-0.7,0-1.2,0-1.4c0-0.5,0-1,0-1.5l0-1.7c0-1.1,0-2.1,0.1-2.9c0.1-1,0.3-1.8,0.6-2.6
				c0.1-0.4,0.3-0.7,0.5-1c0.2-0.3,0.4-0.5,0.7-0.6c0.3-0.2,0.6-0.2,1-0.2c0.5,0,0.9,0.1,1.3,0.3c0.4,0.2,0.7,0.5,1,0.9
				c0.3,0.4,0.5,0.8,0.7,1.3c0.2,0.5,0.4,1,0.5,1.6c0.1,0.7,0.3,1.3,0.3,1.9c0.1,0.5,0.1,1.1,0.2,1.8c0.1,1.3,0.1,2.6,0.1,3.6v1.6
				c0,0.4,0,1-0.1,1.7c-0.1,0.8-0.1,1.3-0.1,1.7v0.1c-0.1,0.5-0.2,1.1-0.2,1.8c0,0.5-0.1,1-0.3,1.6s-0.5,1-0.9,1.4
				c-0.4,0.4-0.9,0.6-1.4,0.6C21.2,110,20.7,109.8,20.3,109.5z M22.7,107.5c0.2-0.6,0.4-1.4,0.5-2.2c0.1-0.9,0.2-1.9,0.3-2.9
				c0-0.6,0.1-1.2,0.1-1.8c0-0.8,0-1.7,0-2.5c0-1-0.2-2.2-0.3-3.7c-0.1-1.2-0.4-2.3-0.8-3.3c-0.2-0.5-0.4-0.8-0.7-1.1
				c-0.3-0.2-0.6-0.4-0.9-0.4c-0.4,0-0.8,0.4-1,1.1c-0.3,0.8-0.5,1.6-0.5,2.5c-0.1,1.1-0.2,2-0.2,2.8l0,0.5c0,0.9,0,1.3,0,1.4v0.1
				c0,1.2,0.1,2.7,0.4,4.5c0.1,1.2,0.3,2.2,0.5,3c0.2,0.9,0.5,1.6,0.8,2.2c0.3,0.6,0.7,0.9,1.1,0.9
				C22.1,108.5,22.4,108.2,22.7,107.5z"/>
			<path d="M30,109.5c-0.4-0.3-0.8-0.8-1-1.3c-0.3-0.5-0.5-1.1-0.7-1.9s-0.4-1.5-0.5-2.2c-0.1-0.6-0.2-1.3-0.3-2.1
				c-0.1-0.8-0.1-1.4-0.1-2c0-0.7,0-1.2,0-1.4c0-0.5,0-1,0-1.5l0-1.7c0-1.1,0-2.1,0.1-2.9c0.1-1,0.3-1.8,0.6-2.6
				c0.1-0.4,0.3-0.7,0.5-1c0.2-0.3,0.4-0.5,0.7-0.6c0.3-0.2,0.6-0.2,1-0.2c0.5,0,0.9,0.1,1.3,0.3c0.4,0.2,0.7,0.5,1,0.9
				c0.3,0.4,0.5,0.8,0.7,1.3c0.2,0.5,0.4,1,0.5,1.6c0.1,0.7,0.3,1.3,0.3,1.9c0.1,0.5,0.1,1.1,0.2,1.8c0.1,1.3,0.1,2.6,0.1,3.6v1.6
				c0,0.4,0,1-0.1,1.7c-0.1,0.8-0.1,1.3-0.1,1.7v0.1c-0.1,0.5-0.2,1.1-0.2,1.8c0,0.5-0.1,1-0.3,1.6c-0.2,0.5-0.5,1-0.9,1.4
				c-0.4,0.4-0.9,0.6-1.4,0.6C30.9,110,30.4,109.8,30,109.5z M32.4,107.5c0.2-0.6,0.4-1.4,0.5-2.2c0.1-0.9,0.2-1.9,0.3-2.9
				c0-0.6,0.1-1.2,0.1-1.8c0-0.8,0-1.7,0-2.5c0-1-0.2-2.2-0.3-3.7C32.7,93.1,32.4,92,32,91c-0.2-0.5-0.4-0.8-0.7-1.1
				c-0.3-0.2-0.6-0.4-0.9-0.4c-0.4,0-0.8,0.4-1,1.1c-0.3,0.8-0.5,1.6-0.5,2.5c-0.1,1.1-0.2,2-0.2,2.8l0,0.5c0,0.9,0,1.3,0,1.4v0.1
				c0,1.2,0.1,2.7,0.4,4.5c0.1,1.2,0.3,2.2,0.5,3c0.2,0.9,0.5,1.6,0.8,2.2c0.3,0.6,0.7,0.9,1.1,0.9
				C31.8,108.5,32.1,108.2,32.4,107.5z"/>
			<path d="M38,109.1c-0.3-0.2-0.4-0.4-0.4-0.7c0.4-0.4,0.6-1.5,0.6-3.2c0-1.1-0.1-2.6-0.3-4.5c-0.2-1.9-0.3-3.4-0.3-4.5
				c0-0.3,0-0.8,0-1.5c0-0.7,0-1.2,0-1.5c0-0.5-0.1-1.2-0.3-1.9c-0.2-0.8-0.3-1.4-0.3-1.7c0-0.6,0.7-0.9,2.1-0.9h0.4
				c0.5,0,1,0.1,1.4,0.2c0.4,0.2,0.8,0.4,1.2,0.7c0.3,0.2,0.6,0.6,0.8,1c0.3,0.4,0.5,0.8,0.6,1.2c0.2,0.4,0.3,0.8,0.4,1.3
				c0.1,0.5,0.2,1,0.3,1.4c0,0.4,0.1,0.8,0.1,1.2s0.1,0.9,0.1,1.2v0.9v1.3c0,0.1-0.1,0.2-0.1,0.2c0,0.1,0,0.2,0,0.3l0,0.3
				c0,0.6-0.1,1.3-0.3,2.1c-0.2,0.8-0.4,1.6-0.8,2.5c-0.4,1-0.8,1.8-1.2,2.5c-0.4,0.7-1,1.3-1.5,1.8c-0.6,0.5-1.2,0.7-1.9,0.7
				C38.5,109.3,38.2,109.2,38,109.1z M41.2,105.9c0.5-0.8,0.9-1.7,1.2-2.6c0.5-1.8,0.7-3.6,0.7-5.4c0-1-0.1-2.1-0.3-3.2
				c-0.2-1.1-0.6-2.1-1.3-3.1c-0.3-0.4-0.7-0.8-1.2-1c-0.5-0.2-1-0.4-1.6-0.4v0c0,1.7,0.1,4.2,0.3,7.4c0.2,3.3,0.3,5.8,0.3,7.5v2.6
				C40.1,107.3,40.7,106.7,41.2,105.9z"/>
			<path d="M47.9,108.8c0-0.6,0-1.7,0.1-3.4c0-1.7,0.1-2.8,0.1-3.4c0-1.4,0-3.2-0.1-5.5c-0.1-2.3-0.1-4.2-0.1-5.5v-0.2
				c0-0.3,0-0.5,0-0.7c0-0.2,0.1-0.4,0.1-0.6c0.1-0.2,0.2-0.4,0.3-0.6c0.2-0.1,0.3-0.2,0.6-0.2c0.9,0,1.6,0.2,2.2,0.6
				c0.6,0.4,1.1,0.9,1.4,1.6c0.3,0.7,0.5,1.5,0.5,2.3c0,0.5-0.1,1.1-0.3,1.7c-0.2,0.6-0.5,1.2-0.8,1.7c-0.3,0.5-0.7,0.9-1.1,1.2
				c1.1,0.7,1.8,1.6,2.3,2.8c0.5,1.1,0.8,2.4,0.8,3.7c0,0.7-0.2,1.4-0.6,2.4c-0.3,0.6-0.6,1-0.9,1.4c-0.3,0.4-0.8,0.7-1.3,1
				c-0.6,0.3-1.1,0.4-1.8,0.4h-0.1C48.3,109.5,47.9,109.2,47.9,108.8z M50.1,97c0.2-0.2,0.4-0.5,0.6-0.8c0.3-0.5,0.5-1.1,0.8-1.9
				c0.1-0.4,0.2-0.6,0.3-0.7v-1c0-0.4-0.1-0.7-0.3-1.1c-0.2-0.4-0.4-0.7-0.7-0.9c-0.3-0.2-0.6-0.4-0.9-0.4c-0.3,0-0.4,0.3-0.4,0.9
				c0,0.9,0,2,0.1,3.2c0,1.2,0.1,2.3,0.1,3.1C49.6,97.3,49.9,97.2,50.1,97z M51.1,107.4c0.4-0.3,0.8-0.8,1-1.3
				c0.2-0.5,0.4-1.1,0.4-1.8c0-0.8-0.1-1.6-0.2-2.3c-0.1-0.7-0.3-1.2-0.5-1.6c-0.2-0.3-0.4-0.6-0.6-0.9c-0.2-0.2-0.4-0.4-0.5-0.5
				L50.4,99h-1c0.1,2.4,0.1,5.4,0.1,9.1C50.1,108,50.6,107.7,51.1,107.4z"/>
			<path d="M61.2,109.1c-0.1-0.1-0.2-0.3-0.2-0.5V105c-0.2-0.2-0.7-0.3-1.3-0.4c-0.6-0.1-1.3-0.2-1.9-0.2c-0.2,0.3-0.3,0.8-0.5,1.4
				l-0.1,0.4c-0.1,0.7-0.3,1.3-0.4,1.8c-0.1,0.5-0.3,0.8-0.4,1.1c-0.7,0-1.1-0.2-1.2-0.5c0.2-0.2,0.4-1.1,0.7-2.6
				c0.2-1.3,0.5-2.9,0.9-5c0.4-2.4,0.8-4.5,1.1-6.1c0.3-1.7,0.7-3,1.1-4.2c0.4-1.3,0.8-1.9,1.2-1.9c0.4,0,0.7,0.1,0.9,0.2
				c0,0.7,0.2,2.4,0.5,5.3c0.4,2.8,0.5,4.7,0.5,5.6c0,0.9,0.1,2.2,0.3,4.1c0.2,2,0.3,3.4,0.3,4.4c0,0.6-0.3,0.9-0.9,0.9
				C61.5,109.2,61.3,109.2,61.2,109.1z M61,103.3c0-0.4-0.1-1.4-0.3-3c-0.4-4.2-0.6-6.7-0.6-7.5c0-0.1,0-0.2,0-0.2
				c-0.2,0.2-0.4,1-0.7,2.5c-0.3,1.5-0.6,3-0.9,4.7c-0.3,1.7-0.4,2.8-0.5,3.3c0.8,0.2,1.6,0.3,2.4,0.3
				C60.6,103.4,60.8,103.3,61,103.3z"/>
			<path d="M69,109.7c-0.4-0.2-0.8-0.4-1.1-0.7c-0.3-0.2-0.6-0.6-0.8-1c-0.2-0.4-0.5-0.8-0.6-1.3c-0.2-0.4-0.3-0.8-0.4-1.4
				c-0.1-0.5-0.2-1.1-0.3-1.6c-0.1-0.4-0.1-0.9-0.1-1.5c0-0.6-0.1-1-0.1-1.4c0-0.2,0-0.6,0-1.2v-0.9c0-0.3,0-0.7,0-1.1
				c0-0.9,0-1.8,0.1-2.8c0.1-1,0.2-1.9,0.4-2.9c0.1-0.5,0.3-0.9,0.4-1.3c0.2-0.4,0.4-0.7,0.6-1.1c0.2-0.4,0.5-0.7,0.8-0.9
				c0.3-0.2,0.6-0.4,1-0.6c0.4-0.1,0.8-0.2,1.3-0.2c0.8,0,1.1,0.3,1.1,0.8c0,0.2-0.1,0.3-0.2,0.5c-0.1,0.1-0.3,0.2-0.5,0.2
				c-0.1,0-0.2,0-0.4-0.1c-0.2,0-0.3-0.1-0.4-0.1c-0.3,0-0.6,0.1-0.9,0.3c-0.3,0.2-0.5,0.5-0.7,0.9c-0.2,0.4-0.4,0.9-0.5,1.3
				c-0.1,0.5-0.2,1-0.3,1.5c-0.1,0.7-0.2,1.3-0.2,1.8c0,0.5-0.1,1-0.1,1.5c0,0.8-0.1,1.7-0.1,2.6v0.7c0,0.2,0,0.6,0,0.9
				c0,0.6,0,1,0,1.4s0,0.8,0.1,1.3c0.1,0.6,0.1,1,0.2,1.5c0.1,0.4,0.2,0.8,0.4,1.3c0.2,0.4,0.4,0.8,0.6,1.1c0.2,0.3,0.5,0.5,0.9,0.7
				c0.3,0.2,0.7,0.3,1.1,0.3c0.8,0,1.5-0.4,2-1.1c0-0.6-0.1-1.2-0.1-1.8c-0.1-0.6-0.2-1.1-0.3-1.3l-0.4,0.1c-0.2,0-0.5,0.1-0.6,0.1
				c-0.6,0-0.9-0.3-0.9-0.8c0-0.2,0.1-0.3,0.3-0.4c0.2-0.1,0.4-0.2,0.7-0.3c0.5-0.1,1-0.2,1.4-0.2c0.4,0,0.6,0.1,0.9,0.4
				c0.2,0.3,0.3,0.6,0.3,1c0,0.5,0.1,1.4,0.3,2.4c0.2,1.1,0.3,1.9,0.3,2.4c0,0.2-0.1,0.4-0.2,0.5c-0.1,0.1-0.3,0.2-0.5,0.2
				c-0.5,0-0.8-0.2-0.9-0.6v0c-0.1,0-0.3,0.1-0.6,0.3c-0.3,0.2-0.6,0.3-0.8,0.4c-0.2,0.1-0.4,0.1-0.6,0.1
				C69.9,110,69.4,109.9,69,109.7z"/>
		</g>
	</g>
</g>
<g>
</g>
<g>
</g>
<g>
</g>
<g>
</g>
<g>
</g>
<g>
</g>
</svg>
