<?xml version="1.0" encoding="utf-8"?>
<!-- Generator: Adobe Illustrator 24.0.0, SVG Export Plug-In . SVG Version: 6.00 Build 0)  -->
<svg version="1.1" id="Layer_1" xmlns="http://www.w3.org/2000/svg" xmlns:xlink="http://www.w3.org/1999/xlink" x="0px" y="0px"
	 width="170px" height="44px" viewBox="0 0 170 44" style="enable-background:new 0 0 170 44;" xml:space="preserve">
<style type="text/css">
	.st0{fill:#026799;}
	.st1{fill:#016699;}
	.st2{fill:#0D6D9E;}
	.st3{fill:#0A6C9D;}
</style>
<g>
	<path class="st0" d="M35.1,7.3c-1.7,1.7-3.3,3.2-4.9,4.8c-3.5-2.7-7.6-3.5-12-2.7c-4.7,0.8-7.7,3.7-8.9,8.2
		c-0.9,3.3-0.8,6.6,0.6,9.8c1.8,4.2,5,6.4,9.5,6.9c2.9,0.3,5.8,0.1,8.6-1c0.4-0.2,0.6-0.4,0.6-0.8c0-2.2,0-4.3,0-6.5
		c0-0.2,0-0.4,0-0.6c-2.5,0-5,0-7.5,0c0.2-2.1,0.3-4.2,0.5-6.3c4.7,0,9.4,0,14.1,0c0,0.2,0,0.4,0,0.6c0,5.6,0,11.3,0,16.9
		c0,0.2-0.2,0.6-0.4,0.7c-6.5,3.5-13.4,4.5-20.6,2.6C7,37.9,2.2,32.1,1.4,24.2c-0.5-4.6,0.2-9,2.7-13c2.8-4.5,6.9-7.1,12-8.1
		C21.4,2.1,26.6,2.5,31.5,5C32.7,5.7,33.8,6.5,35.1,7.3z"/>
	<path class="st1" d="M144.8,31.9c1.5,1.1,2.9,2.2,4.4,3.3c-2.1,2.6-4.6,4.3-7.9,4.9c-3.9,0.7-7.6,0.3-11-2c-3.2-2.2-4.8-5.3-5.3-9
		c-0.3-3,0.1-5.9,1.6-8.5c2.1-3.7,5.4-5.6,9.6-6.1c2.1-0.2,4.2-0.1,6.2,0.6c4.2,1.4,6.5,4.4,7.2,8.6c0.4,2,0.4,4,0.6,6.1
		c-6.3,0-12.4,0-18.5,0c0.1,2,1.7,4.1,3.8,4.7c2.9,0.9,5.5,0.5,7.9-1.4C143.9,32.7,144.4,32.3,144.8,31.9z M143.4,24.6
		c-0.1-1.7-0.8-3-2.2-4c-2.4-1.7-7.7-1.4-9.3,3c-0.1,0.3-0.2,0.7-0.3,1C135.7,24.6,139.5,24.6,143.4,24.6z"/>
	<path class="st1" d="M61.6,39.8c-1.9,0-3.9,0-5.8,0c-0.1-0.8-0.1-1.5-0.2-2.2c-3.7,3.3-7.9,3.6-12.4,2c-2.7-1-4.1-3.1-4.4-5.9
		c-0.2-2.9,0.6-5.4,3.2-7.1c2-1.4,4.3-1.9,6.7-2.1c2.1-0.2,4.3-0.3,6.4-0.4c0.3-1.7-0.6-3.4-2.5-4c-2.3-0.8-4.6-0.5-6.7,0.5
		c-0.9,0.4-1.7,1-2.5,1.5c-1.3-1.2-2.6-2.5-3.9-3.7c1.8-1.4,3.7-2.5,5.9-3.2c3.5-1,7-1.1,10.4,0c3.6,1.1,5.7,3.8,5.8,7.6
		c0.1,5.6,0,11.2,0,16.9C61.6,39.7,61.6,39.7,61.6,39.8z M55.1,29c-1.5,0.1-3,0.1-4.5,0.2c-1.3,0.1-2.6,0.4-3.8,1.1
		c-0.9,0.6-1.4,1.4-1.3,2.5c0.1,1.1,0.7,1.9,1.7,2.1c0.9,0.2,1.9,0.4,2.8,0.3C53.4,34.8,55.5,32.3,55.1,29z"/>
	<path class="st1" d="M99.2,15.1c2.1,0,4.1,0,6.2,0c0.1,1,0.1,2,0.2,3c0.1,0,0.1-0.1,0.2-0.1c2-2.8,4.9-3.7,8.2-3.5
		c2.5,0.2,4.7,1,6.2,3.1c1.2,1.7,1.8,3.6,1.8,5.6c0.1,5.5,0,11,0,16.5c0,0.1,0,0.1-0.1,0.2c-2.2,0-4.4,0-6.7,0c0-0.3,0-0.5,0-0.7
		c0-4.4,0-8.8,0-13.2c0-1.1-0.2-2.2-0.6-3.2c-0.4-1.3-1.5-2-2.9-2.1c-3.5-0.3-5.7,1.7-5.8,5.3c-0.1,4.4,0,8.7,0,13.1
		c0,0.3,0,0.5,0,0.8c-2.2,0-4.4,0-6.7,0C99.2,31.6,99.2,23.4,99.2,15.1z"/>
	<path class="st1" d="M96.2,15c-0.2,2-0.3,3.9-0.5,5.8c-2.1,0-4.1,0-6.2,0c0,0.2,0,0.4,0,0.6c0,3.1,0,6.3,0,9.4
		c0,0.7,0.1,1.4,0.2,2.1c0.2,0.9,0.9,1.4,1.8,1.6c1.3,0.3,2.6,0,3.9-0.3c0.2,0,0.4-0.1,0.7-0.2c-0.1,1.2-0.2,2.4-0.3,3.5
		c0,0.2,0,0.4-0.1,0.6c-0.1,1.5-0.1,1.6-1.6,1.8c-2,0.3-4,0.4-6,0c-3-0.5-4.7-2.3-5.2-5.4c-0.2-1-0.2-2.1-0.2-3.1
		c0-7.6,0-15.2,0-22.8c0-0.2,0-0.4,0-0.6c2.2,0,4.4,0,6.7,0c0,2.3,0,4.6,0,6.9C91.8,15,94,15,96.2,15z"/>
	<path class="st1" d="M153.2,39.8c0-8.3,0-16.5,0-24.7c2.1,0,4.2,0,6.3,0c0.1,0.9,0.1,1.9,0.2,3c2.3-3.1,5.5-3.1,8.8-3
		c-0.2,1.9-0.3,3.8-0.5,5.8c-0.7,0-1.3,0-1.9,0c-3.9-0.2-6.2,2.6-6.2,6.2c0,4,0,8,0,12.1c0,0.2,0,0.5,0,0.7
		C157.6,39.8,155.4,39.8,153.2,39.8z"/>
	<path class="st1" d="M72.6,39.8c-2.3,0-4.5,0-6.7,0c0-8.2,0-16.5,0-24.7c2.1,0,4.2,0,6.3,0c0,0.9,0.1,1.9,0.2,3
		c2.1-2.9,5-3.2,8.2-3c-0.2,1.9-0.3,3.8-0.5,5.8c-0.5,0-1,0-1.5,0c-4.2-0.2-6,3.1-6,6c0,4.1,0,8.2,0,12.2
		C72.6,39.3,72.6,39.5,72.6,39.8z"/>
	<path class="st2" d="M169.4,37c0,1.9-1.5,3.3-3.4,3.3c-1.9,0-3.4-1.5-3.4-3.4c0-1.9,1.5-3.3,3.4-3.3
		C167.9,33.7,169.4,35.1,169.4,37z M168.7,36.9c0-1.5-1.2-2.7-2.7-2.8c-1.5,0-2.7,1.2-2.7,2.8c0,1.6,1.2,2.8,2.7,2.8
		C167.5,39.7,168.7,38.5,168.7,36.9z"/>
	<path class="st3" d="M165.1,39c-0.1-0.1-0.4-0.3-0.4-0.4c0-1.1,0-2.3,0-3.5c0.6,0,1.2,0,1.7,0c0.5,0,1,0.2,1,0.8
		c0.1,0.6-0.1,1-0.7,1.3c-0.1,0-0.2,0.1-0.3,0.1c0.3,0.5,0.7,1,1,1.6c0,0.1-0.1,0.1-0.1,0.2c-0.2-0.1-0.5-0.2-0.6-0.4
		c-0.2-0.3-0.4-0.7-0.6-0.9c-0.2-0.2-0.5-0.3-0.9-0.6c0,0.8,0,1.3,0,1.8C165.2,38.9,165.1,38.9,165.1,39z M165.3,36.9
		c0.6-0.1,1.1-0.2,1.5-0.4c0.1,0,0.1-0.6,0-0.6c-0.5-0.2-1-0.2-1.5-0.3C165.3,36,165.3,36.3,165.3,36.9z"/>
</g>
</svg>
