<?xml version="1.0" encoding="utf-8"?>
<!-- Generator: Adobe Illustrator 24.0.0, SVG Export Plug-In . SVG Version: 6.00 Build 0)  -->
<svg version="1.1"
	 id="svg2" xmlns:cc="http://creativecommons.org/ns#" xmlns:dc="http://purl.org/dc/elements/1.1/" xmlns:rdf="http://www.w3.org/1999/02/22-rdf-syntax-ns#" xmlns:svg="http://www.w3.org/2000/svg"
	 xmlns="http://www.w3.org/2000/svg" xmlns:xlink="http://www.w3.org/1999/xlink" x="0px" y="0px" width="160px" height="51.4px"
	 viewBox="0 0 160 51.4" style="enable-background:new 0 0 160 51.4;" xml:space="preserve">
<style type="text/css">
	.st0{fill:#6EB32E;}
	.st1{fill:#5E4074;}
	.st2{clip-path:url(#SVGID_3_);}
	.st3{opacity:0.5;clip-path:url(#SVGID_4_);}
	.st4{fill:#FFFFFF;}
</style>
<g id="layer1" transform="translate(-80.338422,-388.53564)">
	<g id="text2995">
		<path id="path3152" class="st0" d="M143.2,430.7c0.8,0,1.4-0.2,1.8-0.7c0.4-0.4,0.6-1,0.6-1.6c0-0.6-0.2-1.1-0.6-1.6
			s-1-0.7-1.8-0.7c-0.5,0-1.1,0-1.6,0c-0.5,0-1.1,0-1.6,0v7.3h0.6v-2.8h2l2.5,2.8h0.7L143.2,430.7z M140.5,426.7h2.7
			c0.6,0,1.1,0.2,1.4,0.6c0.3,0.3,0.4,0.7,0.4,1.2c0,0.5-0.2,0.9-0.5,1.3c-0.3,0.3-0.8,0.5-1.4,0.5h-2.6V426.7z"/>
		<path id="path3154" class="st0" d="M149.1,426.7h4.5v-0.5h-5.1v7.3h5.2V433h-4.6v-2.9h4.3v-0.5h-4.3V426.7z"/>
		<path id="path3156" class="st0" d="M162.2,427.3c-0.4-0.5-0.8-0.9-1.2-1c-0.5-0.2-0.9-0.2-1.5-0.2c-0.4,0-0.8,0.1-1.3,0.2
			c-0.4,0.1-0.8,0.3-1.1,0.6c-0.3,0.3-0.4,0.7-0.4,1.2c0,0.7,0.3,1.1,0.9,1.4s1.2,0.4,1.9,0.5c0.6,0.1,1.2,0.3,1.7,0.5
			c0.5,0.2,0.7,0.6,0.7,1.1c0,0.4-0.1,0.8-0.4,1c-0.3,0.2-0.6,0.4-0.9,0.5c-0.4,0.1-0.7,0.1-1,0.1c-0.5,0-0.9-0.1-1.4-0.3
			c-0.5-0.2-0.8-0.6-1.1-1l-0.5,0.3c0.3,0.6,0.7,1,1.3,1.2s1.1,0.4,1.7,0.4c0.4,0,0.9,0,1.3-0.2c0.4-0.1,0.8-0.3,1.1-0.6
			c0.3-0.3,0.5-0.7,0.5-1.3c0-0.8-0.3-1.3-0.9-1.5c-0.6-0.3-1.2-0.5-2-0.6c-0.6-0.1-1.2-0.2-1.6-0.4s-0.6-0.5-0.7-1
			c0-0.4,0.1-0.7,0.4-0.9c0.2-0.2,0.5-0.4,0.9-0.5c0.3-0.1,0.7-0.1,1-0.1c0.4,0,0.8,0.1,1.2,0.2c0.4,0.1,0.7,0.4,1,0.8L162.2,427.3z
			"/>
		<path id="path3158" class="st0" d="M166,426.7h4.5v-0.5h-5.1v7.3h5.2V433H166v-2.9h4.3v-0.5H166V426.7z"/>
		<path id="path3160" class="st0" d="M180.2,433.5l-3.3-7.3h-0.6l-3.3,7.3h0.6l0.8-1.8h4.4l0.8,1.8H180.2z M174.6,431.2l2-4.5l2,4.5
			H174.6z"/>
		<path id="path3162" class="st0" d="M186.2,430.7c0.8,0,1.4-0.2,1.8-0.7c0.4-0.4,0.6-1,0.6-1.6c0-0.6-0.2-1.1-0.6-1.6
			c-0.4-0.5-1-0.7-1.8-0.7c-0.5,0-1.1,0-1.6,0s-1.1,0-1.6,0v7.3h0.6v-2.8h2l2.5,2.8h0.7L186.2,430.7z M183.5,426.7h2.7
			c0.6,0,1.1,0.2,1.4,0.6c0.3,0.3,0.4,0.7,0.4,1.2c0,0.5-0.2,0.9-0.5,1.3c-0.3,0.3-0.8,0.5-1.4,0.5h-2.6V426.7z"/>
		<path id="path3164" class="st0" d="M197.3,432.1c-0.3,0.3-0.7,0.5-1.1,0.7c-0.4,0.2-0.8,0.2-1.2,0.2c-1.1,0-1.9-0.3-2.4-1
			c-0.5-0.6-0.8-1.4-0.8-2.2c0-0.9,0.3-1.7,0.8-2.3s1.3-0.9,2.4-1c0.4,0,0.8,0.1,1.2,0.2c0.4,0.2,0.7,0.4,1.1,0.7l0.4-0.3
			c-0.4-0.4-0.8-0.6-1.2-0.8s-0.9-0.3-1.4-0.3c-0.8,0-1.5,0.2-2.1,0.5c-0.6,0.4-1,0.8-1.3,1.4c-0.3,0.6-0.4,1.2-0.4,1.9
			c0,1,0.3,1.9,1,2.6s1.6,1.1,2.8,1.1c0.5,0,1-0.1,1.4-0.3s0.9-0.5,1.2-0.8L197.3,432.1z"/>
		<path id="path3166" class="st0" d="M206.6,433.5v-7.3H206v3.5h-4.7v-3.5h-0.6v7.3h0.6v-3.3h4.7v3.3H206.6z"/>
	</g>
	<g id="g3007" transform="matrix(5.0798469,0,0,-5.0798469,307.75342,445.58172)">
		<path id="path3009" class="st1" d="M-32.5,8.3v-2c0-1-0.6-1.5-1.5-1.5c-0.8,0-1.5,0.5-1.5,1.5v2h0.6v-2c0-0.6,0.4-1,0.9-1
			c0.5,0,0.8,0.4,0.8,1v2H-32.5z"/>
	</g>
	<g id="g3011" transform="matrix(5.0798469,0,0,-5.0798469,378.63049,445.39326)">
		<path id="path3013" class="st1" d="M-42.7,8.3h0.7V4.8h-0.4v0l-1.8,2.3V4.8h-0.7v3.5h0.5l1.7-2.1V8.3z"/>
	</g>
	<path id="path3015" class="st1" d="M172.6,403.5h3.3v17.6h-3.3V403.5L172.6,403.5z"/>
	<g id="g3017" transform="matrix(5.0798469,0,0,-5.0798469,470.55642,480.07439)">
		<path id="path3019" class="st1" d="M-55.9,13.2h1c0.8,0,0.8,1.2,0,1.2h-1V13.2z M-54.9,12.6h-1v-1h-0.7v3.5c0.5,0,1.1,0,1.6,0
			C-53.2,15.1-53.2,12.6-54.9,12.6"/>
	</g>
	<g id="g3021" transform="matrix(5.0798469,0,0,-5.0798469,585.65203,510.39701)">
		<path id="path3023" class="st1" d="M-72.4,17.6H-75V21h2.6v-0.6h-1.9v-0.8h1.9V19h-1.9v-0.8h1.9V17.6z"/>
	</g>
	<g id="g3025" transform="matrix(5.0798469,0,0,-5.0798469,623.69602,456.88997)">
		<path id="path3027" class="st1" d="M-77.9,9.9V8.8h1c0.4,0,0.6,0.3,0.6,0.6c0,0.3-0.2,0.6-0.6,0.6H-77.9z M-75.5,7.1h-0.8l-1,1.2
			h-0.6V7.1h-0.7v3.5c0.5,0,1.1,0,1.6,0c0.8,0,1.2-0.5,1.2-1.1c0-0.5-0.2-1-0.9-1.1L-75.5,7.1C-75.5,7.1-75.5,7.1-75.5,7.1z"/>
	</g>
	<g id="g3029" transform="matrix(5.0798469,0,0,-5.0798469,133.52585,393.53564)">
		<path id="path3031" class="st1" d="M-7.5,0.8c-1.4,0-2.6-1.1-2.6-2.6c0-1.4,1.1-2.6,2.6-2.6s2.6,1.1,2.6,2.6
			C-4.9-0.3-6.1,0.8-7.5,0.8"/>
	</g>
	<g id="g3033" transform="matrix(5.0798469,0,0,-5.0798469,-76.514138,809.96422)">
		<g id="g3035">
		</g>
		<g id="g3041">
			<g>
				<defs>
					<polygon id="SVGID_1_" points="22.9,60.9 23.2,60.9 22.9,61.1 					"/>
				</defs>
				<defs>
					<polygon id="SVGID_2_" points="22.4,60.3 22.1,60.3 22.4,60.1 					"/>
				</defs>
				<clipPath id="SVGID_3_">
					<use xlink:href="#SVGID_1_"  style="overflow:visible;"/>
				</clipPath>
				<clipPath id="SVGID_4_" class="st2">
					<use xlink:href="#SVGID_2_"  style="overflow:visible;"/>
				</clipPath>
				<g id="g3043" class="st3">
					<g id="g3045" transform="translate(37.062,77.7554)">
						<path id="path3047" class="st4" d="M-4.4,3.9c0,0,1.1,0.2,1.5-0.3c0.7,0.5,1.4,0,1.4,0s-1.1,0-1.2-0.6
							c-0.1-0.9-0.5-1.6-0.5-1.6C-3,2.2-3,2.5-3,3C-3.2,3.7-4.4,3.9-4.4,3.9"/>
					</g>
				</g>
			</g>
		</g>
	</g>
	<g id="g3049" transform="matrix(5.0798469,0,0,-5.0798469,200.68498,445.4852)">
		<path id="path3051" class="st1" d="M-17.1,8.3c0-0.2,0-0.4-0.1-0.6h0.6V6.3c0-0.5-0.3-0.9-0.9-0.9c-0.4,0-0.7,0.2-0.8,0.5
			c-0.2-0.1-0.3-0.3-0.5-0.4c0.2-0.5,0.7-0.7,1.3-0.7c1,0,1.5,0.7,1.5,1.5v2H-17.1z"/>
	</g>
</g>
</svg>
