<svg width="20" height="20" viewBox="0 0 20 20" xmlns="http://www.w3.org/2000/svg"><path d="M2.062 11a8.007 8.007 0 004.475 6.214C5.703 15.61 5.146 13.434 5.025 11H2.062zm0-2h2.963c.12-2.434.678-4.61 1.512-6.214A8.007 8.007 0 002.062 9zm15.876 0a8.007 8.007 0 00-4.475-6.214c.834 1.603 1.391 3.78 1.512 6.214h2.963zm0 2h-2.963c-.12 2.434-.678 4.61-1.512 6.214A8.007 8.007 0 0017.938 11zm-10.91 0c.11 2.004.551 3.828 1.225 5.177C8.881 17.432 9.553 18 10 18c.448 0 1.119-.568 1.747-1.823.674-1.349 1.115-3.173 1.225-5.177H7.028zm0-2h5.944c-.11-2.004-.551-3.828-1.225-5.177C11.119 2.568 10.447 2 10 2c-.448 0-1.119.568-1.747 1.823C7.58 5.172 7.138 6.996 7.028 9zM10 20C4.477 20 0 15.523 0 10S4.477 0 10 0s10 4.477 10 10-4.477 10-10 10z" fill="currentColor" fill-rule="evenodd"/></svg>