<svg id="Layer_1" data-name="Layer 1" xmlns="http://www.w3.org/2000/svg" width="150" height="20" viewBox="0 0 150 20"><defs><style>.cls-1{fill:#d9222a;fill-rule:evenodd;}</style></defs><title>media_markt_logo-150</title><g id="Page-1"><g id="Artboard"><g id="Media_Markt-1-Copy" data-name="Media Markt-1-Copy"><path id="Fill-2" class="cls-1" d="M130.75,7.33,130.8,7a.38.38,0,0,0-.09-.32.37.37,0,0,0-.3-.14h-2a.39.39,0,0,0-.39.32l-.06.31-2.18,11.93a.39.39,0,0,0,.09.33.41.41,0,0,0,.31.14l1,0h.95a.39.39,0,0,0,.38-.31l1.5-7.41a3.21,3.21,0,0,1,2.84-2.6c.06,0,.28,0,.33,0-.76,4.5-1.65,9.81-1.67,9.9a.4.4,0,0,0,.39.46h2.2a.4.4,0,0,0,.38-.28c.07-.21.59-3.26.91-5.1l3.42,5.2a.38.38,0,0,0,.32.18h2.64a.31.31,0,0,0,.13,0,.41.41,0,0,0,.18.05l2.22,0a.41.41,0,0,0,.39-.32s1.6-9.3,1.71-9.91h2.55a.4.4,0,0,0,.39-.33l.34-2s0,0,0-.07a.45.45,0,0,0-.09-.25.41.41,0,0,0-.31-.14h-2.51c.12-.71.57-3.31.57-3.31s0,0,0-.07a.39.39,0,0,0-.1-.25.37.37,0,0,0-.3-.14h-2.2a.39.39,0,0,0-.39.32l-.58,3.45h-1.12a.4.4,0,0,0-.34.19.38.38,0,0,0-.32-.18h-2.61a.39.39,0,0,0-.29.13S137,9,136,10.21c.32-1.85,1.19-6.94,1.19-6.94s0,0,0-.07a.39.39,0,0,0-.1-.25.37.37,0,0,0-.3-.14h-2.2a.4.4,0,0,0-.39.32c0,.3-.27,1.66-.58,3.46h0a.38.38,0,0,0-.31-.14A4.94,4.94,0,0,0,130.75,7.33Zm11,11.17c-.91-1.45-3.55-5.7-3.79-6.07.31-.37,3.53-4.29,4.18-5.06l-.29,1.52a.39.39,0,0,0,.09.33.37.37,0,0,0,.3.14h1C143.15,10.05,142.1,16.45,141.77,18.5ZM66.26,13.42a5.3,5.3,0,0,1-3.45,3.49,3.79,3.79,0,0,1-2.55-.33,3.57,3.57,0,0,1-1.15-1.8,4.34,4.34,0,0,1-.06-.71,5,5,0,0,1,2.22-3.94,3.74,3.74,0,0,1,2.93-.57A2.71,2.71,0,0,1,66,10.87a3.46,3.46,0,0,1,.4,1.64A3,3,0,0,1,66.26,13.42ZM55.07,3.12,54.59,5.7a.4.4,0,0,0,.09.33.37.37,0,0,0,.3.14h2.3a.41.41,0,0,0,.39-.32l.43-2.56A.39.39,0,0,0,58,3a.37.37,0,0,0-.3-.14l-2.25,0A.39.39,0,0,0,55.07,3.12Zm-5,10.3h0a3.34,3.34,0,0,0,.12-.91,3.46,3.46,0,0,0-.4-1.64A2.71,2.71,0,0,0,48,9.56a3.75,3.75,0,0,0-2.93.57,5,5,0,0,0-2.22,3.94,4.34,4.34,0,0,0,.06.71,3.57,3.57,0,0,0,1.15,1.8,3.79,3.79,0,0,0,2.55.33A5.34,5.34,0,0,0,50.11,13.42ZM31.26,11.58h0l6.1-.06a2.26,2.26,0,0,0-.76-1.32,3.4,3.4,0,0,0-2.3-.68A4.26,4.26,0,0,0,31.26,11.58Zm92.31,1.84a5.32,5.32,0,0,1-3.46,3.49,3.77,3.77,0,0,1-2.54-.33,3.51,3.51,0,0,1-1.15-1.8,4.38,4.38,0,0,1-.07-.71,5,5,0,0,1,2.22-3.94,3.78,3.78,0,0,1,2.94-.57,2.68,2.68,0,0,1,1.78,1.31,3.35,3.35,0,0,1,.41,1.64A3,3,0,0,1,123.57,13.42ZM0,19.39v-.25a.25.25,0,0,1,0-.07L16.4.21a.28.28,0,0,1,.22-.1h2.65a.3.3,0,0,1,.22.1.3.3,0,0,1,.07.19.13.13,0,0,1,0,.06s-2.05,10.13-2.43,12L27.94.21a.26.26,0,0,1,.22-.1h2.48a.32.32,0,0,1,.24.11.31.31,0,0,1,.05.25l-2.61,10.6.06-.11a8.19,8.19,0,0,1,6.16-4.43h0a5.32,5.32,0,0,1,5.16,2.52l0,0A7.52,7.52,0,0,1,40.47,12a8.37,8.37,0,0,1,2.29-3.44A6.87,6.87,0,0,1,49,6.63l.07,0,.21.08a5.47,5.47,0,0,1,1.48.86c.24-1.13.94-4.48.94-4.48a.4.4,0,0,1,.39-.31h2a.37.37,0,0,1,.3.14.38.38,0,0,1,.09.32l-3,16.05a.4.4,0,0,1-.39.33h-2a.41.41,0,0,1-.31-.14.38.38,0,0,1-.09-.25.15.15,0,0,1,0-.07s0-.27.08-.45A6.92,6.92,0,0,1,44,19.86a5.2,5.2,0,0,1-3.8-4,7.65,7.65,0,0,1-.12-1.5.43.43,0,0,1-.27.1h-9.4a.49.49,0,0,0,0,.12,1.84,1.84,0,0,0,.11.54l0,.14A2.85,2.85,0,0,0,33.25,17a4.58,4.58,0,0,0,3.32-1.72.36.36,0,0,1,.29-.13H39a.4.4,0,0,1,.36.56,7.49,7.49,0,0,1-6.66,4.18,5.24,5.24,0,0,1-4.49-2.61,6.12,6.12,0,0,1-.66-3l-1.23,5a.29.29,0,0,1-.29.23H23.34a.3.3,0,0,1-.29-.3v-.07c1-4.31,2.49-10.44,3-12.86L14.86,19.46a.29.29,0,0,1-.22.1l-2.24,0a.3.3,0,0,1-.23-.11.33.33,0,0,1-.06-.19v-.06c1-4.36,2.28-10.58,2.74-13L3.78,19.47a.32.32,0,0,1-.24.11c-.77,0-1.34,0-2,0H.25A.29.29,0,0,1,0,19.39ZM127.21,6.72a.37.37,0,0,0-.3-.14h-2a.4.4,0,0,0-.39.31l-.15.77a5.07,5.07,0,0,0-1.56-.92l-.2-.08-.08,0a6.88,6.88,0,0,0-6.27,1.88,8.58,8.58,0,0,0-2.06,2.86L116.85.47a.28.28,0,0,0-.06-.25.28.28,0,0,0-.23-.11h-2.48a.29.29,0,0,0-.23.1L103,12.42c.38-1.83,2.5-12,2.5-12s0,0,0-.06a.28.28,0,0,0-.07-.19.31.31,0,0,0-.23-.1h-2.74a.29.29,0,0,0-.23.1L88.57,16.05a18.81,18.81,0,0,0-1.33-4.82c-1.84-3.77-5.93-5-8.25-2.82h0l-.36.26c1.68-2.68,6-2.56,8.7.6a15,15,0,0,1,2.09,3.65,10.05,10.05,0,0,0,.41-2.39,15.19,15.19,0,0,0-3-3.07c-3.47-2.34-7.63-1.35-8.56,1.68h0L78,9.56c.11-3.17,3.87-5.2,7.83-3.83a14.82,14.82,0,0,1,3.75,2.2c0-.12,0-.25-.09-.37a9.65,9.65,0,0,0-.88-2.26,15.07,15.07,0,0,0-4.14-1.13c-4.18-.29-7.28,2.64-6.57,5.73v0l0,.44c-1.48-2.8.75-6.43,4.87-7.24a14.79,14.79,0,0,1,4.25,0,9.86,9.86,0,0,0-2-1.64,14.73,14.73,0,0,0-4.11,1.09c-3.76,1.84-5,5.93-2.82,8.25h0l.27.37c-2.69-1.68-2.57-6,.59-8.7A14.94,14.94,0,0,1,82.65.42,9.72,9.72,0,0,0,79.86,0,15.3,15.3,0,0,0,77,2.92c-2.34,3.47-1.35,7.62,1.68,8.56h0l.41.18c-3.16-.12-5.19-3.87-3.83-7.83a15,15,0,0,1,2-3.51A10.16,10.16,0,0,0,75,1.22a14.9,14.9,0,0,0-1.07,4c-.29,4.18,2.65,7.28,5.74,6.57h0l.45,0c-2.8,1.48-6.44-.76-7.24-4.87a14.78,14.78,0,0,1,0-4.13,10.13,10.13,0,0,0-1.73,2.17,15.19,15.19,0,0,0,1.06,3.92c1.84,3.76,5.93,5,8.25,2.82h0l.36-.26c-1.68,2.68-6,2.56-8.7-.6A15.07,15.07,0,0,1,70,7a.39.39,0,0,0-.09-.26.41.41,0,0,0-.31-.14h-2a.39.39,0,0,0-.38.31A1.87,1.87,0,0,0,67,7.6a5.47,5.47,0,0,0-1.48-.86l-.21-.08-.07,0a6.87,6.87,0,0,0-6.27,1.88A8.49,8.49,0,0,0,56.62,12a.78.78,0,0,1,0,.09l.86-5a.4.4,0,0,0-.08-.32.41.41,0,0,0-.31-.14H54.89a.4.4,0,0,0-.39.33L52.25,19.18a.38.38,0,0,0,.09.32.37.37,0,0,0,.3.14h2.29a.39.39,0,0,0,.39-.33l.87-5,0,.05a7.65,7.65,0,0,0,.12,1.5,5.19,5.19,0,0,0,3.8,4A6.92,6.92,0,0,0,65,18.73c0,.18-.08.45-.08.45a.15.15,0,0,0,0,.07.38.38,0,0,0,.09.25.41.41,0,0,0,.31.14h2a.4.4,0,0,0,.39-.33l1.78-9.65a23.69,23.69,0,0,0,3.08,2.93C76.06,15,80.22,14,81.15,10.93h0l.18-.42c-.11,3.17-3.87,5.2-7.83,3.84a15,15,0,0,1-3.51-2c0,.06,0,.13,0,.2A9.91,9.91,0,0,0,71,14.87a14.65,14.65,0,0,0,3.9,1c4.18.29,7.28-2.64,6.57-5.73v0l0-.45c1.48,2.8-.75,6.44-4.87,7.24a14.84,14.84,0,0,1-4,0,9.81,9.81,0,0,0,1.82,1.51,14.93,14.93,0,0,0,4.07-1.08c3.76-1.84,5-5.93,2.82-8.25v0l-.26-.36c2.68,1.68,2.56,5.95-.6,8.7a15,15,0,0,1-3.73,2.12,9.34,9.34,0,0,0,1.88.44h.91a14.84,14.84,0,0,0,3-3c2.34-3.47,1.35-7.63-1.68-8.56h0l-.41-.18c3.17.11,5.2,3.87,3.83,7.83a14.85,14.85,0,0,1-2.19,3.73l.36-.08A10.16,10.16,0,0,0,84.42,19a15.29,15.29,0,0,0,1.11-4.11c.29-4.18-2.64-7.28-5.74-6.57h0l-.45,0c2.8-1.48,6.44.75,7.24,4.87a11.81,11.81,0,0,1,.12,4.12,5.08,5.08,0,0,1-.46,1.29l-.3.5h0s0,0,0,0h0a.29.29,0,0,0,0,.27.3.3,0,0,0,.27.17h1.28c.66,0,1.24,0,2,0a.3.3,0,0,0,.23-.11L100.77,6.23c-.47,2.41-1.79,8.63-2.74,13a.13.13,0,0,0,0,.06.28.28,0,0,0,.07.19.28.28,0,0,0,.23.11l2.24,0a.29.29,0,0,0,.22-.1L112,6.35c-.53,2.42-2,8.55-3,12.86,0,0,0,.05,0,.07a.29.29,0,0,0,.07.18.27.27,0,0,0,.23.12h2.65a.29.29,0,0,0,.29-.23l1.14-4.65.16-.66c0,.19,0,.34,0,.34a8.53,8.53,0,0,0,.13,1.5,5.19,5.19,0,0,0,3.79,4,7,7,0,0,0,4.89-1.13c0,.18-.08.45-.08.45a.15.15,0,0,0,0,.07.38.38,0,0,0,.09.25.39.39,0,0,0,.3.14h2a.4.4,0,0,0,.39-.33l1.83-9.72L127.3,7a.31.31,0,0,0-.09-.26Z"/></g></g></g></svg>
