<svg xmlns="http://www.w3.org/2000/svg" width="24" height="24" viewBox="0 0 24 24">
  <path fill="currentColor" fill-rule="evenodd" d="M20.675,16.962 L21.946,20.676 C22.069,21.037 21.977,21.438 21.707,21.707 C21.517,21.897 21.261,22 21,22 C20.892,22 20.782,21.982 20.676,21.946 L16.962,20.675 C15.498,21.514 13.808,22 12,22 C6.478,22 2,17.522 2,12 C2,6.478 6.478,2 12,2 C17.522,2 22,6.478 22,12 C22,13.808 21.514,15.498 20.675,16.962 Z M17.6095674,18.7827377 L19.3930947,19.3930968 L18.4896122,16.7530227 L18.9397551,15.9675529 C19.6318233,14.7599392 20,13.4075862 20,12 C20,7.5825695 16.4174305,4 12,4 C7.5825695,4 4,7.5825695 4,12 C4,16.4174305 7.5825695,20 12,20 C13.4075862,20 14.7599392,19.6318233 15.9675529,18.9397551 L16.7530227,18.4896122 L17.6095674,18.7827377 Z M12,13 C12.5522847,13 13,12.5522847 13,12 C13,11.4477153 12.5522847,11 12,11 C11.4477153,11 11,11.4477153 11,12 C11,12.5522847 11.4477153,13 12,13 Z M16,13 C16.5522847,13 17,12.5522847 17,12 C17,11.4477153 16.5522847,11 16,11 C15.4477153,11 15,11.4477153 15,12 C15,12.5522847 15.4477153,13 16,13 Z M8,13 C8.55228475,13 9,12.5522847 9,12 C9,11.4477153 8.55228475,11 8,11 C7.44771525,11 7,11.4477153 7,12 C7,12.5522847 7.44771525,13 8,13 Z"/>
</svg>
