<svg id="svg8" xmlns="http://www.w3.org/2000/svg" width="113.99" height="50" viewBox="0 0 113.99 50"><defs><style>.cls-1{fill:#120a08;}</style></defs><title>MINI-logo2</title><g id="layer1"><path id="circle828" class="cls-1" d="M56.81.32A24.76,24.76,0,0,0,35.94,11.76H.34L3.88,15.3H34.09a25.27,25.27,0,0,0-1.36,4.13H8l3.5,3.5H32.16c-.07.72-.11,1.43-.11,2.15s0,1.32.1,2H15.64l3.5,3.5H32.69A24.46,24.46,0,0,0,34,34.69H23.27l3.55,3.55h9a24.71,24.71,0,0,0,41.89,0h9l3.54-3.55H79.63a23.62,23.62,0,0,0,1.31-4.13H94.48l3.5-3.5H81.48c.06-.66.09-1.32.1-2s0-1.43-.11-2.15h20.64l3.5-3.5H80.89a24.35,24.35,0,0,0-1.36-4.13h30.21l3.55-3.54H77.68A24.73,24.73,0,0,0,56.81.32Zm0,3.35A21.41,21.41,0,0,1,78.22,25.08h0A21.41,21.41,0,1,1,56.81,3.67Zm-17,15.86v11.1H42.1V21.89l2.44,8.74h2.4l2.45-8.74v8.74H51.7V19.53H48L45.75,27.1l-2.24-7.57Zm14.34,0v11.1h2.49V19.53Zm4.88,0v11.1h2.31V23.39l5,7.24h2.49V19.53H66.47v7.41l-5-7.41Zm12.35,0v11.1h2.49V19.53Z"/></g></svg>