<svg id="Layer_1" data-name="Layer 1" xmlns="http://www.w3.org/2000/svg" xmlns:xlink="http://www.w3.org/1999/xlink" width="70mm" height="70mm" viewBox="0 0 198.43 198.43"><defs><style>.cls-1{fill:#fff;}.cls-1,.cls-3,.cls-5{fill-rule:evenodd;}.cls-2{mask:url(#mask);}.cls-3{fill:#0f6d73;}.cls-4{mask:url(#mask-2-2);}.cls-5{fill:#2fb456;}</style><mask id="mask" x="0.15" y="60.04" width="99.76" height="67.82" maskUnits="userSpaceOnUse"><g id="mask-2"><polygon id="path-1" class="cls-1" points="0.15 60.04 99.91 60.04 99.91 127.86 0.15 127.86 0.15 60.04"/></g></mask><mask id="mask-2-2" x="62.84" y="79.53" width="67.61" height="60.54" maskUnits="userSpaceOnUse"><g id="mask-4"><polygon id="path-3" class="cls-1" points="62.84 79.53 130.44 79.53 130.44 140.07 62.84 140.07 62.84 79.53"/></g></mask></defs><title>pci-dss-certified-logo</title><g id="logo_pci" data-name="logo pci"><g id="Page-1"><g id="Group-3"><g class="cls-2"><path id="Fill-1" class="cls-3" d="M87.37,72.57c0-4.29-2.94-6.16-6.31-6.13-3.83,0-6.41,1.72-6.52,6-.1,4.13,2.88,6,6.53,6.05,3.28,0,6.38-1.94,6.3-6m-11.67,22c0,4.23,0,8.46,0,12.68,0,.76.23,1,1,1,2.61-.05,5.23,0,7.85-.05,1.61,0,1.73-.16,1.72-1.75V82c0-1.2,0-1.2-1.23-1.2H76.9c-1.2,0-1.2,0-1.2,1.25V94.56m-59.86-1v11.48c0,.24,0,.49,0,.74s0,.46-.3.49-.35-.19-.42-.4c-.32-.84-.64-1.66-.94-2.5L2.1,70.6Q1.2,68.17.32,65.76C0,64.9.09,64.78,1,64.71c3.7-.29,7.43-.3,11.12-.6,5.7-.46,11.42-.48,17.11-1,2.91-.26,5.84-.18,8.74-.46,5.45-.53,10.94-.31,16.37-1a10.27,10.27,0,0,1,1.47,0c3.79,0,7.54-.46,11.31-.63,3.5-.15,7-.39,10.5-.44,1.77,0,3.47-.6,5.25-.43.47,0,.74.1.95.58C86.09,65.79,88.4,70.9,90.69,76l7.23,16.09c.62,1.38,1.2,2.76,1.85,4.12a1,1,0,0,1-.2,1.24c-2.71,2.77-5.19,5.75-7.74,8.68a2.45,2.45,0,0,1-1.18.67q-6.09,1.94-12.16,3.9a1.54,1.54,0,0,1-1.41-.23c-1.65-1.17-3.29-2.36-4.94-3.55a1.3,1.3,0,0,1-.51-1.21c0-1.39,0-2.77,0-4.16s0-1.29-1.17-.9a18.35,18.35,0,0,1-6.58,1.21c-2.68-.11-5.16-.75-6.91-3a7.13,7.13,0,0,1,4.52-11.37,14.13,14.13,0,0,1,8.39,1.41c1,.46,1,.46,1-.61,0-2,0-4,0-5.92a.79.79,0,0,0-.66-.92c-6.07-1.58-12.06-1.57-17.83,1.09a12.83,12.83,0,0,0-7.68,9.39,13,13,0,0,0,8,15,22,22,0,0,0,5.49,1.46,1.59,1.59,0,0,1,1.16.65c1.38,1.88,2.75,3.78,4.14,5.66.38.51.13.64-.34.78-2.37.73-4.73,1.48-7.1,2.23l-27,8.51c-1.63.51-3.27,1-4.9,1.55-.7.22-1.08.12-1.36-.67-2.09-5.77-4.24-11.52-6.37-17.27-.05-.15-.11-.29-.15-.44-.28-.89-.12-1.13.8-1.13,2.68,0,5.36,0,8,0,1.41,0,1.42,0,1.41-1.43,0-1.94,0-3.88-.11-5.82,0-.73.23-1,1-.93a22.12,22.12,0,0,0,9.13-1.29C39.68,97.52,42,95.47,42.62,92c.8-4.8-1.34-8.19-6.11-9.86a30.43,30.43,0,0,0-9.8-1.3c-3.3,0-6.59,0-9.89,0-.74,0-1,.19-1,1,0,3.94,0,7.89,0,11.84"/></g></g><g id="Group-6"><g class="cls-4"><path id="Fill-4" class="cls-5" d="M130.45,79.72C128.16,81.85,126,83.86,124,86a186.85,186.85,0,0,0-12.81,14.89C105,108.76,99.22,117,93.79,125.36c-3,4.68-6,9.38-8.85,14.19-.34.58-.55.75-1,.07-5.91-9.22-12.46-18-19.1-26.71-.58-.76-1.13-1.54-1.73-2.28a.85.85,0,0,1,.1-1.35c1.12-1,2.23-2.11,3.32-3.2a.78.78,0,0,1,1.19-.07c5.29,3.67,10.62,7.3,15.89,11,.78.54,1.16.36,1.65-.28A182.47,182.47,0,0,1,102.72,97.2a142.25,142.25,0,0,1,20.93-17.15,3.61,3.61,0,0,1,2-.48,25,25,0,0,1,4.77.15"/></g></g><path id="Fill-7" class="cls-3" d="M141.36,87.12v3.24c0,2.68,0,2.68,2.7,2.39a3.25,3.25,0,0,0,3.27-3,15,15,0,0,0,.09-4.33c-.22-2.3-1.15-3.37-3-3.74A18.91,18.91,0,0,0,142,81.5c-.51,0-.68.21-.67.72,0,1.64,0,3.27,0,4.9m-6.39.09c0-3.12,0-6.24,0-9.35,0-.88.29-1.11,1.12-1.08,3.22.09,6.45.2,9.67.17a7.59,7.59,0,0,1,7.58,5.67,14.67,14.67,0,0,1-.32,9.95,7.53,7.53,0,0,1-6.74,4.79c-3.5.33-7,.08-10.49.19-.7,0-.81-.3-.81-.89q0-4.72,0-9.45"/><path id="Fill-9" class="cls-3" d="M171.81,82.76c-.37,0-.75,0-1.11,0-1,.09-1.79,0-2.24-1.23s-3-1.74-4.21-.81a1.18,1.18,0,0,0-.49,1.21,1.25,1.25,0,0,0,1,1L169,84.06a19.47,19.47,0,0,1,3.31,1.18c4,1.88,4.24,6.64,2.08,9.48a8,8,0,0,1-5.24,2.82,16.86,16.86,0,0,1-7.17-.31,7.24,7.24,0,0,1-5-5.93c-.08-.5,0-.72.61-.79,1.58-.18,3.16,0,4.73-.26.81-.11.94.44,1.11,1A3.41,3.41,0,0,0,168.6,93a1.71,1.71,0,0,0-.11-3,9.85,9.85,0,0,0-3.31-1.09,14.94,14.94,0,0,1-5.35-2.2,5.4,5.4,0,0,1,0-8.61,9.42,9.42,0,0,1,5.12-1.68,12.88,12.88,0,0,1,7.14,1.07c1.87,1,2.63,2.68,3.05,4.61.1.45-.23.61-.61.62-.89,0-1.79,0-2.69,0v.09"/><path id="Fill-11" class="cls-3" d="M188,76.29c2.12.07,4.08.18,5.8,1.33a6.22,6.22,0,0,1,2.64,4.17c.1.48-.14.65-.52.67-1.69.08-3.38.15-5.07.2-.48,0-.54-.43-.7-.75a3,3,0,0,0-3.43-1.71c-.75.21-1.53.54-1.49,1.5s.69,1.23,1.45,1.43c2,.55,4,1.08,6,1.67a5.92,5.92,0,0,1,4.48,6.48,6.71,6.71,0,0,1-5.26,6,16.37,16.37,0,0,1-8.48,0,7.31,7.31,0,0,1-5-6.13c0-.39.13-.49.47-.51,1.68-.13,3.37-.25,5.06-.4.62-.06.66.37.79.79a3.48,3.48,0,0,0,4.34,2.56,2.27,2.27,0,0,0,1.79-1.77,1.92,1.92,0,0,0-1.29-2,22.42,22.42,0,0,0-4-1.22,10.36,10.36,0,0,1-5-2.49c-2.37-2.46-1.53-6.89,1.57-8.55A12.06,12.06,0,0,1,188,76.29"/><path id="Fill-13" class="cls-3" d="M193.58,102.84c0,.43,0,.86,0,1.29,0,.81.34,1,1.1.69,1.21-.52.94-1.59.93-2.54a1.44,1.44,0,0,0-1.26-1.38c-.46-.12-.86-.13-.78.57a12.5,12.5,0,0,1,0,1.37m-2.57,0c0-1,0-2,0-2.93,0-.7.24-.91.92-.88,1,0,2,0,3.06,0a3.89,3.89,0,0,1,1.18.19c1.52.49,2.2,1.94,2.07,4.45a3,3,0,0,1-2.42,2.94,30,30,0,0,1-4.24.11c-.49,0-.56-.36-.56-.77,0-1,0-2.08,0-3.12"/><path id="Fill-15" class="cls-3" d="M153.7,102.13c.68.12,1.22-.09,1.22-.82s-.72-.74-1.27-.83c-.71-.11-.79.35-.8.88s.21.92.85.77m4.2,4.42a.85.85,0,0,1-.2.08c-1.65.33-2.88-.14-3.45-1.84a3.85,3.85,0,0,0-.39-.72c-.15-.24-.37-.47-.64-.43s-.29.41-.3.67a7.69,7.69,0,0,0,0,1.27c.09.72,0,1.13-.91,1.09-1.59-.06-1.6,0-1.6-1.1,0-1.85,0-3.71,0-5.56,0-.72.19-1.05,1-1,1.24.07,2.49,0,3.74,0a2.07,2.07,0,0,1,2.14,1.22,2.38,2.38,0,0,1-.8,2.67c-.41.31-.36.53-.15.9.53.87,1,1.77,1.58,2.71"/><path id="Fill-17" class="cls-3" d="M183,102.77c0-1,0-2,0-3,0-.56.19-.74.75-.73,1.6,0,3.21,0,4.82,0,.43,0,.82,0,.7.62s.28,1.26-.72,1.23c-.82,0-1.64,0-2.46,0-.33,0-.61,0-.61.46s.24.5.59.5c.79,0,1.58,0,2.37,0s.6.43.6.86.08.9-.59.88-1.58,0-2.37,0c-.49,0-.62.19-.61.66s.08.75.64.73c.94,0,1.89,0,2.83,0,.55,0,.62.29.54.69s.35,1.11-.49,1.12c-1.79,0-3.59,0-5.38,0-.57,0-.6-.4-.6-.82v-3.13"/><path id="Fill-19" class="cls-3" d="M142.69,102.84c0-1,0-2,0-3,0-.56.16-.82.79-.8q2.42.06,4.83,0c.7,0,.71.37.71.88s0,1-.72,1-1.52,0-2.28,0c-.36,0-.89-.18-.86.48s.54.46.91.46c.67,0,1.34,0,2,0,.45,0,.78.08.75.64s.09,1-.66,1-1.27,0-1.91,0c-.47,0-1.08-.23-1.1.67s.56.69,1,.7q1.1,0,2.19,0c.46,0,.86,0,.81.64s.1,1.16-.75,1.16H145.9c-.83,0-1.65,0-2.47,0-.54,0-.77-.2-.75-.76,0-1,0-2.09,0-3.13"/><path id="Fill-21" class="cls-3" d="M26.49,90.31c0-.9,0-1.8,0-2.7,0-.48.17-.69.64-.69a10.93,10.93,0,0,1,3.27.38,3.25,3.25,0,0,1,2.37,3.19,3.47,3.47,0,0,1-2.64,3.2,10.57,10.57,0,0,1-3,.23c-.49,0-.62-.27-.61-.72,0-1,0-1.93,0-2.89"/><path id="Fill-23" class="cls-3" d="M136.36,102.92c0,.22,0,.43,0,.64a1.34,1.34,0,0,0,1,1.48,1.3,1.3,0,0,0,1.53-.71c.33-.53,1.27-.53,2.08,0,.57.38.12.83-.07,1.18a2.52,2.52,0,0,1-2.07,1.35,10.51,10.51,0,0,1-1.37.09,3.29,3.29,0,0,1-3.49-2.52,4.35,4.35,0,0,1,1.29-4.71,4.46,4.46,0,0,1,4.86,0,2.11,2.11,0,0,1,1,1.56c0,.26-1.58.62-2.06.47a.74.74,0,0,1-.38-.23,1.22,1.22,0,0,0-1.63-.36c-.69.26-.72.82-.7,1.42v.36Z"/><path id="Fill-25" class="cls-3" d="M171.45,102.8c0-1,0-2,0-3,0-.53.12-.77.71-.76,1.52,0,3,0,4.54,0,.58,0,.8.24.77.75s0,1.1-.78,1.08-1.42,0-2.13,0c-.35,0-.71,0-.69.51s.29.64.73.63,1,0,1.57,0c.81-.07.68.54.74,1s-.26.71-.74.69a.6.6,0,0,0-.19,0c-2.09,0-2.15,0-2.09,2.18,0,1-.52,1-1.17.92s-1.36.22-1.28-.88,0-2,0-3"/><path id="Fill-27" class="cls-3" d="M160.83,103.84c0-.71,0-1.42,0-2.12,0-.55-.2-.72-.71-.68a3.53,3.53,0,0,1-.46,0c-1.28,0-1.34-.09-1.29-1.36,0-.53.22-.69.73-.68,2,0,4,0,6,0,.78,0,.76.42.77.93s0,1.09-.74,1.11H165c-1.68.12-1.68.12-1.68,1.79,0,1.07,0,2.15,0,3.22,0,.51-.15.68-.62.67h-.18c-1.75,0-1.75,0-1.75-1.78v-1.11Z"/><path id="Fill-29" class="cls-3" d="M169.72,102.9c0,1,0,2.08,0,3.12,0,.52-.16.71-.7.71-2.32,0-1.92.15-1.94-1.75,0-1.65,0-3.31,0-5,0-.72.16-1,1-1,1.61.06,1.61,0,1.61,1.6v2.3Z"/><path id="Fill-31" class="cls-3" d="M178.68,102.83c0-1,0-2.08,0-3.13,0-.5.15-.71.66-.7,2.06,0,1.72-.28,1.75,1.77,0,1.69,0,3.37,0,5.06,0,.64-.14,1-.85.89-1.56-.12-1.56-.08-1.56-1.78Z"/></g></g></svg>