<svg xmlns="http://www.w3.org/2000/svg" width="145" height="70" viewBox="1.25 456.5 145 70"><path fill="#BDBCBC" d="M2.58 479.596c.894-.081 1.788-.155 2.681-.245.987-.1 1.972-.216 2.958-.323 1.032-.112 2.065-.226 3.099-.335.998-.105 1.997-.202 2.996-.308 1.01-.106 2.019-.219 3.028-.327.775-.083 1.551-.16 2.326-.242 1.033-.11 2.065-.224 3.099-.334.963-.103 1.927-.202 2.89-.306 1.033-.11 2.065-.225 3.099-.334.986-.104 1.975-.202 2.961-.307 1.033-.109 2.065-.229 3.099-.337.998-.105 1.998-.198 2.996-.305 1.021-.108 2.042-.226 3.063-.338.904-.099 1.813-.17 2.712-.299 1.856-.267 3.72-.512 5.563-.859 2.674-.505 5.234-1.387 7.671-2.607 2.288-1.146 4.383-2.582 6.326-4.245 2.513-2.151 4.721-4.584 6.719-7.211.853-1.121 1.659-2.276 2.488-3.416.045-.063.094-.124.177-.232.042.604.041 1.101-.326 1.587-1.469 1.945-2.883 3.932-4.352 5.877-.512.678-1.11 1.292-1.688 1.919-1.641 1.778-3.345 3.489-5.316 4.908-2.118 1.524-4.408 2.725-6.843 3.657-2.64 1.012-5.375 1.657-8.159 2.094-1.492.234-2.997.394-4.495.593-1.346.179-2.689.371-4.035.546-1.369.179-2.74.343-4.11.52-1.183.152-2.363.318-3.546.471-1.194.156-2.39.3-3.583.454-1.323.171-2.646.349-3.969.522-1.018.134-2.036.267-3.055.399-1.194.154-2.388.306-3.582.461-1.183.154-2.364.311-3.547.464-1.183.153-2.365.3-3.548.455-.995.129-1.989.267-2.983.396-.937.122-1.874.239-2.811.359-.003-.922-.003-1.847-.003-2.772z"/><path fill="#BDBCBC" d="M2.58 483.296c.954-.078 1.908-.149 2.861-.236.87-.079 1.739-.175 2.608-.262 1.141-.114 2.279-.228 3.42-.339.812-.079 1.623-.151 2.435-.229 1.164-.112 2.327-.229 3.491-.34.847-.081 1.694-.152 2.542-.232 1.164-.11 2.327-.227 3.491-.337.847-.08 1.694-.151 2.542-.231 1.176-.111 2.351-.23 3.526-.339.883-.083 1.766-.151 2.648-.231 1.2-.11 2.398-.227 3.599-.338.847-.079 1.694-.152 2.542-.229 1.247-.113 2.493-.229 3.74-.343.824-.075 1.651-.118 2.471-.229 1.929-.263 3.862-.505 5.778-.85 2.752-.496 5.375-1.41 7.862-2.696 2.082-1.077 4.007-2.39 5.765-3.938.996-.876 1.984-1.766 2.907-2.716 1.751-1.802 3.362-3.727 4.875-5.732.262-.347.524-.693.838-1.107.032.533.073.944-.253 1.36-1.139 1.453-2.226 2.947-3.353 4.41-.454.59-.933 1.167-1.451 1.701-1.196 1.233-2.388 2.475-3.647 3.642-2.333 2.164-5.006 3.806-7.956 5.005-2.754 1.12-5.61 1.849-8.545 2.279-1.636.239-3.276.436-4.916.639-1.57.194-3.143.378-4.714.557-1.561.178-3.124.335-4.684.517-1.713.199-3.422.42-5.134.62-1.537.18-3.076.337-4.612.519-1.688.199-3.374.42-5.062.62-1.513.18-3.028.337-4.541.519-1.664.199-3.326.419-4.99.62-1.489.179-2.979.342-4.47.516-.539.063-1.077.138-1.615.208.002-.928.002-1.852.002-2.778z"/><path fill="#BDBCBC" d="M2.58 486.926c1.142-.09 2.284-.179 3.427-.27.942-.075 1.886-.149 2.827-.227 1.366-.113 2.731-.232 4.097-.343.99-.081 1.98-.148 2.97-.229 1.33-.109 2.66-.228 3.99-.34.931-.078 1.861-.149 2.792-.226 1.378-.114 2.755-.233 4.133-.345.978-.08 1.956-.147 2.934-.228 1.318-.109 2.637-.229 3.955-.339.978-.081 1.956-.149 2.934-.23 1.036-.085 2.071-.18 3.107-.267.672-.056 1.344-.101 2.015-.159 1.307-.112 2.615-.204 3.918-.353 1.431-.163 2.86-.345 4.28-.579 2.563-.422 5.054-1.118 7.448-2.139 2.835-1.208 5.396-2.86 7.75-4.833 1.919-1.608 3.689-3.372 5.313-5.28.645-.757 1.283-1.519 1.925-2.278.028-.033.068-.055.133-.105.049.474.042.864-.279 1.243-1.265 1.488-2.466 3.031-3.759 4.493-.807.912-1.704 1.751-2.619 2.558-1.117.985-2.276 1.926-3.453 2.841-1.925 1.495-4.085 2.568-6.354 3.434-2.608.996-5.315 1.605-8.062 2.05-1.142.185-2.294.301-3.441.45-.044.006-.086.034-.128.051-.059.005-.118.014-.177.014-4.041 0-8.083-.002-12.124-.003h-.468v1.311c-.6.062-1.198.123-1.797.185-.986.102-1.974.2-2.959.305-1.244.133-2.488.273-3.731.406-.986.105-1.974.201-2.96.306-1.032.109-2.064.226-3.097.335-.986.105-1.974.202-2.959.308s-1.97.225-2.956.33c-.998.106-1.997.198-2.995.302-1.291.135-2.582.273-3.873.416-.585.065-1.171.14-1.756.21-.001-.925-.001-1.85-.001-2.775zM144.92 492.121c-.673-.121-1.349-.223-2.018-.366-2.945-.628-5.891-1.263-8.833-1.907-2.561-.561-5.132-1.086-7.674-1.726-1.496-.377-2.979-.865-4.406-1.452-1.628-.671-3.044-1.729-4.121-3.128-1.825-2.373-3.592-4.792-5.343-7.221-2.526-3.506-5.016-7.038-7.521-10.56-1.003-1.409-2.001-2.82-3.01-4.224-.188-.26-.286-.518-.282-.849.018-1.361.008-2.724.068-4.114.228.348.459.695.684 1.044 1.625 2.532 3.25 5.064 4.874 7.596 3.178 4.955 6.354 9.911 9.533 14.865.744 1.159 1.553 2.263 2.538 3.236 1.335 1.32 2.903 2.276 4.604 3.033 2.652 1.182 5.461 1.838 8.289 2.424 2.544.527 5.086 1.064 7.627 1.605 1.548.331 3.092.679 4.639 1.014.113.024.235.012.353.017-.001.239-.001.476-.001.713z"/><path fill="#BDBCBC" d="M144.92 494.969c-2.375-.465-4.752-.918-7.125-1.395-2.849-.57-5.697-1.141-8.539-1.746-2.755-.588-5.485-1.262-8.016-2.568-2.072-1.071-3.733-2.59-5.141-4.439-1.763-2.317-3.589-4.585-5.384-6.877-1.452-1.854-2.898-3.713-4.347-5.57-1.492-1.913-2.986-3.825-4.472-5.744-.095-.122-.176-.293-.177-.443-.015-1.315-.009-2.631-.009-4.049.34.474.627.868.907 1.268 2.43 3.474 4.849 6.956 7.289 10.421 2.312 3.281 4.661 6.536 6.966 9.822 1.959 2.794 4.569 4.717 7.703 6.006 2.674 1.099 5.462 1.761 8.282 2.324 2.791.558 5.581 1.117 8.372 1.675 1.123.225 2.246.445 3.37.664.104.02.212.008.318.01.003.213.003.426.003.641z"/><path fill="#BDBCBC" d="M144.92 497.744c-.756-.123-1.515-.232-2.27-.371-2.288-.416-4.576-.83-6.86-1.268-3.293-.631-6.594-1.227-9.869-1.939-2.321-.508-4.538-1.346-6.536-2.679-1.24-.829-2.311-1.839-3.266-2.983-.865-1.035-1.78-2.029-2.665-3.048-1.318-1.519-2.631-3.045-3.946-4.568-.96-1.11-1.925-2.216-2.883-3.328-1.268-1.47-2.531-2.943-3.796-4.416-.324-.377-.653-.75-.971-1.133-.069-.085-.139-.204-.14-.308-.007-1.245 0-2.491.006-3.735 0-.017.022-.034.051-.073.648.834 1.294 1.661 1.936 2.49 2.101 2.714 4.2 5.43 6.302 8.145 2.181 2.817 4.373 5.625 6.544 8.451 1.914 2.492 4.332 4.305 7.228 5.515 2.603 1.088 5.319 1.744 8.078 2.262 2.472.465 4.94.938 7.412 1.402 1.834.342 3.669.676 5.504 1.012.046.008.095.004.142.004-.001.187-.001.379-.001.568z"/><path fill="#BCBCBC" d="M2.58 493.26v-2.704c1.167-.075 2.334-.144 3.5-.226 1.577-.111 3.154-.232 4.732-.348.707-.051 1.413-.098 2.12-.151 1.471-.112 2.941-.232 4.413-.34 1.106-.082 2.215-.147 3.322-.227 1.577-.113 3.154-.233 4.732-.348.729-.053 1.46-.102 2.19-.152 1.354-.094 2.709-.187 4.063-.281l.012 2.007c-.87.075-1.741.143-2.611.225-1.128.107-2.255.228-3.383.337-.834.082-1.67.15-2.505.23-1.151.111-2.302.229-3.453.341-.799.078-1.599.149-2.397.228-1.128.112-2.255.229-3.383.339-.835.08-1.67.15-2.505.23-1.151.111-2.302.227-3.453.344-.845.084-1.689.182-2.535.26-.952.087-1.906.158-2.859.236z"/><path fill="#BDBCBC" d="M2.58 500.662v-2.775c.567-.021 1.134-.037 1.7-.066 1.311-.066 2.62-.141 3.93-.211 1.357-.072 2.715-.143 4.072-.215 1.369-.07 2.738-.143 4.107-.213 1.865-.096 3.73-.191 5.596-.285 1.404-.07 2.809-.146 4.213-.211 1.819-.082 3.64-.154 5.459-.232.003.67.006 1.34.009 2.008-.167.002-.333-.008-.498.006-1.484.113-2.968.232-4.452.342-.767.059-1.534.098-2.3.156-1.508.111-3.016.232-4.523.348-.989.074-1.979.145-2.97.223-1.389.111-2.778.232-4.168.34-1.072.082-2.146.146-3.218.227-1.508.113-3.015.23-4.521.352-.813.062-1.624.136-2.436.206z"/><path fill="#BCBCBC" d="M2.58 497.031v-2.773c1.062-.053 2.124-.102 3.186-.158.635-.035 1.269-.086 1.902-.129 1.402-.096 2.804-.191 4.206-.285.705-.049 1.41-.094 2.115-.143 1.391-.094 2.78-.191 4.17-.283.813-.055 1.627-.1 2.44-.154 1.613-.111 3.227-.23 4.84-.338.895-.061 1.79-.1 2.685-.152 1.179-.068 2.356-.145 3.535-.217.002.668.004 1.338.005 2.008-1.176.098-2.352.193-3.527.291-.812.07-1.623.135-2.434.211-1.445.135-2.889.279-4.334.41-1.211.109-2.424.193-3.635.305-1.656.152-3.311.326-4.967.479-1.422.133-2.846.24-4.269.373-1.973.178-3.945.37-5.918.555z"/><path fill="#BDBCBC" d="M2.58 504.363v-2.705c.791-.045 1.581-.096 2.372-.133 1.111-.053 2.223-.096 3.334-.145 1.678-.07 3.356-.141 5.035-.215 1.644-.068 3.285-.143 4.929-.211 1.726-.072 3.452-.145 5.178-.215 1.17-.049 2.341-.1 3.512-.141 1.573-.057 3.146-.107 4.72-.16.002.67.005 1.338.007 2.008-.969.049-1.938.088-2.905.148-1.711.107-3.421.232-5.131.346-.825.055-1.652.094-2.478.152-1.545.109-3.088.23-4.633.338-.896.063-1.794.102-2.691.16-1.697.111-3.396.232-5.093.348-.779.053-1.559.098-2.336.15-1.274.092-2.547.183-3.82.275zM2.58 507.922v-2.775c.982-.021 1.964-.039 2.946-.064 1.775-.045 3.55-.094 5.324-.143 1.739-.047 3.479-.094 5.218-.141 1.752-.049 3.503-.096 5.254-.143 1.763-.049 3.525-.102 5.289-.141 1.682-.037 3.363-.061 5.045-.092.004.67.009 1.338.013 2.008-1.453.066-2.906.127-4.358.197-1.383.068-2.764.145-4.146.219-1.335.07-2.669.143-4.004.211-1.381.072-2.763.143-4.145.215-1.347.07-2.693.143-4.039.213-1.405.072-2.812.143-4.217.217-1.393.07-2.786.145-4.18.219zM2.58 515.252v-2.705c.793-.02 1.585-.053 2.378-.059 2.962-.029 5.925-.051 8.887-.074 2.986-.023 5.973-.055 8.958-.068 2.952-.016 5.904-.014 8.856-.02.003.668.006 1.336.009 2.006-.84.02-1.68.035-2.52.059-1.442.043-2.885.096-4.327.141-1.537.051-3.074.096-4.612.145-1.371.045-2.742.094-4.114.141-1.454.049-2.908.096-4.362.145-1.396.045-2.79.096-4.185.141-1.656.048-3.313.097-4.968.148zM2.58 511.623v-2.705c.448-.021.897-.053 1.347-.063 1.35-.027 2.699-.047 4.049-.072 1.279-.023 2.558-.047 3.837-.07 1.361-.025 2.723-.047 4.085-.072 1.338-.023 2.676-.047 4.014-.07 1.291-.023 2.581-.053 3.872-.07 2.274-.031 4.549-.055 6.824-.088.354-.006.707-.045 1.061-.068-.003.668-.007 1.338-.01 2.006-1.335.066-2.669.135-4.004.201-.992.047-1.985.094-2.979.137-1.749.074-3.5.145-5.249.219-1.005.043-2.01.094-3.014.137-1.75.074-3.5.145-5.25.221-1.004.043-2.009.094-3.014.135-1.856.076-3.712.148-5.569.222zM2.58 522.582v-2.703c.662.02 1.324.047 1.986.061 1.325.029 2.651.049 3.977.072 1.279.023 2.557.049 3.836.072 1.338.023 2.675.049 4.013.068 2.049.031 4.098.053 6.146.084.65.01 1.3.049 1.95.057 2.393.031 4.785.051 7.178.078-.001.668-.001 1.336-.002 2.006-1.303.018-2.605.041-3.908.053-2.809.027-5.617.051-8.426.072-3.117.025-6.233.055-9.351.07-2.466.012-4.932.008-7.399.01zM2.58 518.953v-2.705c6.231 0 12.462-.004 18.693-.002 2.594 0 5.188.008 7.782.012.095.045.197.137.283.125.284-.045.605.15.854-.123.491-.006.981-.012 1.473-.018-.001.668-.001 1.338-.001 2.006-.64.018-1.277.039-1.917.055-2.106.049-4.214.096-6.321.145-1.906.045-3.813.094-5.718.143-1.847.047-3.693.094-5.539.143-1.787.047-3.574.098-5.362.141-1.408.029-2.818.051-4.227.078z"/><path fill="#BBBBBD" d="M31.679 526.289c-3.9 0-7.802.004-11.703.004H3.042c-.154 0-.309-.006-.462-.01v-2.705c.307.021.612.055.919.064 1.835.049 3.67.094 5.504.141 1.918.049 3.836.096 5.754.145 1.834.047 3.669.096 5.503.141 1.268.031 2.535.051 3.802.08.592.014 1.183.047 1.773.061 1.941.051 3.883.096 5.824.145.007.643.014 1.288.02 1.934z"/><path fill="#BDBCBC" d="M144.92 500.805c-.988-.17-1.979-.334-2.966-.51-2.104-.371-4.206-.752-6.311-1.127-2.952-.523-5.91-1.02-8.856-1.576-3.061-.578-5.928-1.646-8.395-3.613-.628-.502-1.249-1.02-1.823-1.58-1.459-1.426-2.898-2.873-4.329-4.327-1.662-1.69-3.31-3.396-4.959-5.099-1.245-1.286-2.484-2.577-3.726-3.866-.56-.581-1.119-1.16-1.67-1.749-.081-.087-.159-.221-.16-.333-.011-1.161-.007-2.322-.007-3.573.249.275.452.493.648.718 1.348 1.557 2.693 3.116 4.043 4.673 1.519 1.754 3.035 3.509 4.562 5.257 1.277 1.462 2.553 2.927 3.854 4.367 1.215 1.344 2.439 2.682 3.704 3.978 1.872 1.918 4.162 3.131 6.72 3.891 2.883.855 5.835 1.389 8.789 1.914 2.174.387 4.344.789 6.518 1.18 1.383.248 2.768.486 4.151.727.069.014.142.006.212.008.001.212.001.425.001.64z"/><path fill="#BDBCBC" d="M144.92 503.652c-1.107-.176-2.215-.348-3.322-.527-1.701-.273-3.402-.549-5.104-.828-1.456-.238-2.912-.477-4.366-.721-1.77-.301-3.54-.592-5.305-.916-2.528-.469-5.029-1.041-7.328-2.254-1.095-.578-2.087-1.299-3-2.139-2.031-1.867-4.08-3.717-6.119-5.574-.85-.774-1.697-1.549-2.542-2.328-1.977-1.823-3.951-3.648-5.922-5.477-.087-.08-.183-.206-.185-.312-.013-1.089-.008-2.178-.008-3.267l.087-.069c.219.239.435.481.656.718.324.346.647.692.979 1.031 1.4 1.434 2.805 2.862 4.205 4.295 1.897 1.942 3.795 3.884 5.688 5.831 1.074 1.104 2.137 2.222 3.21 3.325 1.864 1.918 4.075 3.299 6.576 4.234 2.569.961 5.237 1.525 7.931 1.992 2.442.422 4.885.848 7.329 1.26 2.049.344 4.1.672 6.151 1.002.127.021.259.008.389.01v.714zM110.688 526.426c-.127-.045-.254-.129-.381-.129-2.703-.008-5.406-.006-8.109-.008h-.449v-2.107c.707 0 1.401 0 2.095.002.095 0 .188.027.282.029 1.113.029 2.226.053 3.338.086 1.443.043 2.886.098 4.329.143 1.573.049 3.146.094 4.72.143 1.49.047 2.98.092 4.471.143 1.277.045 2.554.094 3.831.141 1.276.047 2.554.096 3.83.145 1.241.045 2.482.094 3.724.141 1.218.047 2.436.096 3.652.141 1.254.049 2.507.096 3.76.145 1.193.047 2.388.094 3.582.143.52.02 1.039.041 1.559.063v.713c-3.723-.002-7.445-.006-11.168-.004-.097 0-.193.049-.29.074-7.593-.004-15.185-.004-22.776-.004z"/><path fill="#BDBCBC" d="M144.92 506.568c-.782-.107-1.566-.205-2.347-.324-1.575-.242-3.148-.494-4.722-.746-1.248-.197-2.494-.4-3.741-.596-1.47-.23-2.94-.449-4.408-.686-2.798-.449-5.612-.809-8.315-1.725-1.886-.637-3.563-1.627-5.104-2.879-2.074-1.689-4.176-3.344-6.261-5.018-1.909-1.535-3.812-3.079-5.717-4.617-.792-.639-1.588-1.274-2.375-1.919-.091-.075-.2-.199-.201-.302-.015-1.016-.009-2.032-.009-3.137.452.4.85.745 1.238 1.099 1.436 1.307 2.865 2.622 4.304 3.926 1.683 1.527 3.369 3.051 5.063 4.567 1.65 1.475 3.293 2.959 4.974 4.396 1.88 1.609 4.043 2.709 6.414 3.406 2.896.854 5.864 1.357 8.834 1.857 2.468.416 4.933.844 7.4 1.256 1.514.252 3.031.484 4.547.719.139.023.283.008.425.01.001.241.001.477.001.713zM144.92 515.252c-1.058-.104-2.115-.207-3.173-.311-.846-.086-1.691-.174-2.537-.258-1.104-.113-2.208-.229-3.313-.336-.858-.084-1.718-.154-2.576-.236-1.14-.109-2.279-.225-3.419-.338-.987-.1-1.975-.195-2.961-.301-2.082-.223-4.142-.563-6.15-1.172-2.205-.668-4.294-1.623-6.39-2.559-2.703-1.205-5.403-2.418-8.102-3.633-1.426-.643-2.843-1.303-4.269-1.943-.24-.105-.332-.24-.325-.508.02-.721.007-1.443.007-2.246.354.176.657.316.952.475 1.34.711 2.671 1.438 4.016 2.139 3.352 1.744 6.7 3.498 10.068 5.213 2.746 1.398 5.644 2.381 8.673 2.947 1.461.273 2.931.51 4.403.713 1.742.24 3.491.432 5.238.633 1.384.158 2.771.293 4.156.443 1.455.158 2.91.318 4.365.48.445.051.89.104 1.335.156.002.216.002.429.002.642zM144.92 523.936c-1.735-.092-3.471-.186-5.206-.277-.969-.051-1.938-.1-2.905-.146-2.056-.102-4.112-.195-6.168-.299-1.216-.061-2.432-.131-3.646-.209-1.663-.107-3.325-.227-4.987-.342-1.12-.076-2.242-.131-3.36-.229-1.317-.115-2.632-.264-3.947-.398-.975-.1-1.949-.201-2.924-.309-1.149-.127-2.298-.262-3.447-.395-.903-.104-1.807-.207-2.708-.314-1.091-.131-2.181-.26-3.27-.396-.206-.025-.506-.004-.59-.125-.107-.156-.046-.432-.048-.656-.004-.496-.001-.99-.001-1.531.543.086 1.04.16 1.535.244 1.944.322 3.888.646 5.832.973 1.642.273 3.28.561 4.924.822 1.783.285 3.567.561 5.355.813 1.461.207 2.925.389 4.391.553 1.091.123 2.187.209 3.281.303 1.647.143 3.295.287 4.944.412.907.07 1.817.098 2.727.156 1.261.084 2.521.184 3.782.27.861.059 1.724.104 2.585.156 1.191.072 2.384.146 3.575.225.093.006.185.039.276.061v.638z"/><path fill="#FEFEFE" d="M133.462 526.426c.097-.025.193-.074.29-.074 3.723-.002 7.445.002 11.168.004-.095.021-.189.066-.284.066-3.725.004-7.449.004-11.174.004z"/><path fill="#254AA4" d="M31.654 488.483c.003-.627.006-1.256.009-1.884v-1.311h.468c4.041.001 8.083.003 12.125.003.059 0 .117-.009.176-.014 3.759.004 7.516.007 11.273.01.344 0 .688-.008 1.031-.013 1.117.002 2.234.004 3.352.006H67.49c.142.002.284.007.427.007h25.051v41.022h-.383c-20.184 0-40.368 0-60.552-.002-.118 0-.235-.012-.354-.02-.006-.645-.013-1.291-.02-1.936.002-.66.003-1.318.005-1.977.001-.67.001-1.338.002-2.006-.001-.709-.001-1.416-.002-2.123.001-.668.001-1.338.002-2.006.001-.637.001-1.273.002-1.91-.003-.67-.006-1.338-.009-2.006 0-.66 0-1.318-.001-1.977.003-.668.007-1.338.01-2.006 0-.637 0-1.275.001-1.912-.004-.67-.009-1.338-.013-2.008.003-.658.006-1.316.01-1.977-.002-.67-.005-1.338-.007-2.008.002-.658.005-1.318.007-1.979-.003-.668-.006-1.338-.009-2.008.002-.682.005-1.363.007-2.047-.001-.67-.003-1.34-.005-2.008.002-.637.005-1.272.007-1.908-.004-.663-.008-1.333-.012-2.002zm35.891 7.685c.098-.045.206-.076.293-.139.459-.33.914-.668 1.373-1.004.561.41 1.104.809 1.71 1.252-.209-.639-.384-1.213-.589-1.777-.075-.209-.023-.314.145-.436.477-.34.941-.699 1.499-1.117-.685 0-1.261-.012-1.837.004-.229.006-.332-.066-.395-.293-.152-.541-.336-1.075-.535-1.7-.165.511-.297.948-.449 1.379-.259.736-.043.594-.833.607-.46.008-.921.002-1.382.002.466.426.936.785 1.416 1.127.163.115.199.221.133.412-.193.559-.363 1.123-.541 1.688-.002-.001-.005-.003-.008-.005zM60.8 521.729c.549-.381 1.097-.764 1.658-1.154.536.393 1.069.781 1.604 1.17.019 0 .037.002.056.002-.006-.01-.012-.018-.018-.025-.014.01-.028.021-.042.033-.01-.109-.001-.225-.033-.328-.143-.463-.286-.928-.454-1.381-.074-.201-.042-.313.135-.438.485-.346.956-.713 1.513-1.131-.689 0-1.276-.01-1.863.004-.213.004-.312-.057-.371-.271-.154-.543-.339-1.08-.517-1.635-.045.039-.059.045-.062.053-.137.416-.274.83-.409 1.246-.197.602-.196.604-.838.604h-1.382c.377.365.764.656 1.151.945.477.354.472.352.289.93-.145.459-.274.922-.411 1.383-.009.006-.018.012-.025.018.006-.008.013-.018.019-.025zm1.597-32.563c-.023.002-.047.005-.069.007-.205.65-.41 1.299-.615 1.949h-2.116c.454.353.818.637 1.185.919.546.42.546.42.338 1.076-.146.459-.29.918-.463 1.467.547-.416 1.014-.76 1.466-1.125.178-.143.301-.152.484-.002.447.365.915.703 1.384 1.059.016-.051.032-.074.026-.092-.112-.375-.225-.748-.342-1.121-.267-.844-.267-.842.431-1.383.317-.247.633-.494 1.025-.801H63c-.201-.653-.402-1.304-.603-1.953zM52.293 501.32c-.208-.646-.367-1.189-.563-1.721-.09-.244-.046-.379.165-.525.471-.328.921-.686 1.467-1.096-.7 0-1.287-.012-1.874.006-.222.006-.31-.076-.368-.275-.161-.549-.341-1.094-.537-1.715-.203.631-.388 1.178-.555 1.732-.057.191-.144.262-.347.258-.588-.016-1.176-.006-1.769-.006.008.051.002.082.015.092.351.264.7.527 1.053.789.564.42.565.42.343 1.096-.14.426-.279.85-.451 1.369.634-.463 1.175-.859 1.716-1.256.559.411 1.093.803 1.705 1.252zm-.002 13.744c-.202-.627-.358-1.16-.548-1.68-.095-.26-.076-.416.174-.584.467-.313.903-.672 1.435-1.072-.678 0-1.253-.016-1.827.006-.254.01-.348-.086-.414-.313-.153-.541-.336-1.072-.526-1.672-.165.504-.311.941-.452 1.379-.193.6-.193.6-.836.6h-1.381c.437.404.874.746 1.329 1.063.226.156.302.297.192.578-.204.525-.356 1.072-.557 1.691.616-.449 1.164-.848 1.709-1.246.557.409 1.092.801 1.702 1.25zm-5.235-6.97c.62-.455 1.162-.852 1.716-1.258.556.406 1.099.803 1.703 1.246-.208-.65-.384-1.232-.586-1.809-.064-.184-.025-.27.123-.377.484-.352.957-.717 1.522-1.143-.637 0-1.167-.023-1.693.008-.35.021-.5-.096-.583-.432-.121-.494-.301-.973-.455-1.457-.238.527-.422 1.037-.569 1.559-.069.25-.179.34-.441.328-.561-.02-1.122-.006-1.789-.006.537.402.969.752 1.43 1.059.261.172.286.336.184.609-.198.52-.357 1.052-.562 1.673zm29.866 3.677c-.042-.045-.049-.061-.056-.061-.451-.002-.901-.006-1.352-.006-.652 0-.65 0-.85-.623-.135-.426-.275-.852-.439-1.355-.205.635-.387 1.172-.548 1.717-.061.203-.157.273-.372.268-.584-.016-1.169-.006-1.857-.006.53.395.963.742 1.423 1.051.256.172.33.322.208.627-.208.523-.358 1.068-.555 1.668.609-.447 1.159-.852 1.708-1.254.56.41 1.088.795 1.615 1.182-.126-.604-.296-1.166-.493-1.721-.07-.195-.025-.301.132-.414.479-.348.948-.707 1.436-1.073zm.242-5.74c.563-.424 1.104-.834 1.723-1.301-.668 0-1.234-.018-1.798.008-.281.014-.39-.086-.46-.348-.142-.521-.32-1.035-.511-1.637-.161.484-.3.895-.435 1.307-.22.67-.218.67-.926.67h-1.311c.408.389.813.719 1.248 1 .311.199.391.395.243.75-.2.48-.334.99-.495 1.486.518-.303.98-.631 1.427-.979.179-.139.303-.152.488-.006.454.359.93.693 1.469 1.09-.238-.735-.445-1.374-.662-2.04zm-18.958 10.727c-.01-.023-.021-.049-.03-.072-.507 0-1.017-.031-1.521.008-.396.031-.556-.113-.645-.486-.114-.479-.295-.943-.476-1.504-.206.633-.396 1.154-.543 1.688-.068.25-.187.307-.424.299-.563-.018-1.125-.004-1.688-.004.448.42.914.777 1.392 1.117.172.123.22.229.143.439-.203.559-.376 1.129-.588 1.779.532-.391.999-.715 1.441-1.068.209-.168.349-.15.549.006.442.35.905.674 1.425 1.057-.233-.725-.441-1.373-.655-2.037.547-.412 1.084-.818 1.62-1.222zm14.317-15.453c.516-.379.973-.68 1.387-1.031.258-.217.425-.18.662.016.412.334.852.633 1.366 1.01-.206-.635-.362-1.18-.561-1.707-.099-.264-.036-.402.182-.553.461-.322.904-.668 1.354-1.006-.009-.021-.018-.045-.027-.066h-1.265c-.762 0-.762 0-.992-.723-.125-.395-.25-.787-.4-1.262-.237.727-.442 1.352-.652 1.996h-2.104c.613.457 1.161.865 1.718 1.279-.217.668-.428 1.314-.668 2.047zm-2.681 15.363c-.204-.639-.405-1.27-.634-1.986-.144.445-.26.805-.375 1.162-.268.828-.268.828-1.132.828h-1.263c.531.396.955.74 1.41 1.037.271.178.317.344.205.639-.195.508-.348 1.033-.551 1.65.634-.463 1.174-.857 1.71-1.252.564.416 1.099.809 1.711 1.258-.215-.652-.384-1.205-.582-1.748-.084-.23-.031-.354.165-.49.477-.334.936-.693 1.474-1.098h-2.138zm-13.734-23.691c-.21-.65-.412-1.274-.646-1.993-.186.568-.378 1.02-.475 1.489-.089.434-.307.529-.707.502-.489-.035-.982-.008-1.578-.008.526.393.952.742 1.412 1.043.275.18.299.355.191.641-.192.512-.35 1.037-.551 1.645.623-.453 1.163-.85 1.713-1.254.548.402 1.079.793 1.611 1.184-.124-.605-.291-1.158-.487-1.701-.075-.205-.033-.314.139-.438.477-.342.939-.701 1.482-1.109-.758-.001-1.425-.001-2.104-.001z"/><path fill="#BDBCBC" d="M144.803 509.557c-.413-.053-.83-.1-1.246-.158-1.496-.207-2.992-.416-4.488-.625-1.32-.184-2.641-.375-3.963-.549-1.404-.184-2.813-.34-4.218-.521-2.948-.387-5.918-.648-8.775-1.555-1.714-.543-3.364-1.236-4.857-2.236-4.411-2.947-8.798-5.93-13.194-8.9-.696-.471-1.387-.949-2.089-1.412-.189-.125-.264-.262-.26-.492.015-.877.006-1.753.006-2.707.436.33.829.621 1.217.921 3.5 2.708 6.987 5.435 10.505 8.122 1.645 1.256 3.313 2.488 5.034 3.635 1.687 1.125 3.592 1.799 5.534 2.355 2.435.697 4.918 1.154 7.424 1.502 2.197.303 4.395.611 6.592.924 1.928.273 3.854.555 5.782.832.163.023.33.025.492.057.62.113.619.117.504.807z"/><path fill="#BDBCBC" d="M144.849 512.455c-1.177-.129-2.313-.256-3.448-.377-.998-.107-1.997-.207-2.995-.314-1.021-.109-2.042-.221-3.063-.334-.916-.1-1.832-.195-2.747-.301-1.419-.162-2.845-.281-4.255-.508-1.734-.279-3.468-.594-5.179-.99-2.627-.607-5.061-1.715-7.406-3.027-1.819-1.018-3.646-2.023-5.463-3.047-2.054-1.154-4.101-2.322-6.15-3.484-.722-.41-1.438-.828-2.165-1.227-.191-.104-.268-.221-.264-.441.013-.803.005-1.604.005-2.49.35.219.637.395.92.574 4.229 2.707 8.441 5.443 12.694 8.111 2.176 1.365 4.408 2.646 6.855 3.492 2.164.748 4.381 1.275 6.642 1.605 2.184.318 4.375.584 6.565.863 2.107.27 4.217.523 6.326.785.949.117 1.897.24 2.848.348.212.023.297.104.281.311-.01.139-.001.279-.001.451zM101.714 507.01c.622.254 1.166.475 1.709.697 2.595 1.068 5.181 2.15 7.783 3.195 2.416.969 4.838 1.924 7.276 2.832 1.885.703 3.839 1.189 5.825 1.508 1.643.262 3.296.459 4.947.652 1.63.189 3.265.336 4.897.504 1.855.189 3.711.381 5.567.57 1.609.164 3.218.33 4.827.492.326.033.361.113.253.713-.18-.02-.361-.045-.544-.061-.66-.053-1.32-.1-1.979-.154-1.413-.115-2.825-.234-4.238-.348-1.001-.08-2.003-.145-3.004-.229-1.271-.107-2.54-.227-3.811-.34-.858-.076-1.719-.139-2.577-.225-1.291-.133-2.588-.238-3.87-.432-1.527-.23-3.065-.453-4.557-.844-2.012-.523-3.99-1.18-5.97-1.822-2.756-.895-5.501-1.826-8.248-2.75-1.347-.453-2.688-.92-4.026-1.393-.105-.037-.248-.174-.251-.27-.019-.729-.009-1.463-.009-2.295zM144.855 521.066c-1.862-.135-3.674-.27-5.486-.395-1.215-.084-2.431-.146-3.646-.23-1.532-.105-3.063-.229-4.595-.34-1.084-.078-2.17-.139-3.254-.229-1.224-.1-2.446-.215-3.668-.338-1.092-.111-2.188-.203-3.271-.373-1.76-.277-3.524-.549-5.262-.934-4.543-1.004-9.072-2.072-13.609-3.104-.275-.063-.365-.17-.357-.449.02-.646.007-1.295.007-1.984.832.246 1.609.488 2.392.709 4.608 1.293 9.201 2.645 13.833 3.848 2.36.611 4.782 1 7.19 1.41 1.674.283 3.367.457 5.057.635 1.116.119 2.241.148 3.36.234 1.366.105 2.73.23 4.096.34 1.037.082 2.075.148 3.111.227 1.284.094 2.57.178 3.852.299.462.044.16.417.25.674zM60.088 485.281c-1.117-.002-2.234-.004-3.353-.006 1.095-.445 2.206-.855 3.281-1.345 1.942-.883 3.651-2.141 5.331-3.441 2.254-1.745 4.311-3.705 6.298-5.741.271-.278.53-.567.841-.833.027.387.167.744-.154 1.109-2.668 3.035-5.535 5.853-8.898 8.122-1.029.695-2.104 1.323-3.156 1.983-.068.043-.127.1-.19.152zM67.489 485.281h-2.137c2.701-1.475 4.951-3.522 7.165-5.725.065.587.064 1.019-.379 1.414-1.492 1.328-2.945 2.697-4.412 4.053-.085.079-.158.172-.237.258zM29.056 516.258c.379 0 .759 0 1.138.002-.249.273-.57.078-.855.123-.086.012-.189-.08-.283-.125z"/><path fill="#FBEF04" d="M62.397 489.166c.2.649.401 1.3.603 1.953h2.131c-.393.307-.708.554-1.025.801-.697.541-.697.539-.431 1.383.117.373.229.746.342 1.121.006.018-.011.041-.026.092-.469-.355-.937-.693-1.384-1.059-.184-.15-.307-.141-.484.002-.452.365-.919.709-1.466 1.125.173-.549.317-1.008.463-1.467.208-.656.208-.656-.338-1.076-.366-.282-.73-.566-1.185-.919h2.116c.205-.65.41-1.299.615-1.949.023-.002.046-.005.069-.007z"/><path fill="#F9ED06" d="M52.293 501.32c-.612-.449-1.146-.842-1.705-1.252-.541.396-1.082.793-1.716 1.256.172-.52.312-.943.451-1.369.223-.676.222-.676-.343-1.096-.352-.262-.702-.525-1.053-.789-.013-.01-.007-.041-.015-.092.593 0 1.181-.01 1.769.006.203.004.29-.066.347-.258.167-.553.352-1.102.555-1.732.196.621.376 1.166.537 1.715.059.199.146.281.368.275.587-.018 1.174-.006 1.874-.006-.546.41-.996.768-1.467 1.096-.211.146-.255.281-.165.525.196.532.355 1.075.563 1.721z"/><path fill="#FBEF04" d="M52.291 515.064c-.61-.449-1.144-.842-1.702-1.25-.545.398-1.093.797-1.709 1.246.2-.621.353-1.166.557-1.691.109-.281.033-.422-.192-.578-.455-.316-.893-.658-1.329-1.063h1.381c.643 0 .643 0 .836-.6.142-.438.287-.875.452-1.379.191.6.373 1.131.526 1.672.066.227.16.322.414.313.574-.021 1.149-.006 1.827-.006-.531.4-.968.76-1.435 1.072-.25.168-.269.324-.174.584.19.52.346 1.054.548 1.68z"/><path fill="#F9ED06" d="M60.806 521.734c.137-.461.267-.924.411-1.383.183-.578.188-.576-.289-.93-.388-.289-.774-.58-1.151-.945h1.382c.642 0 .641-.002.838-.604.135-.416.272-.83.409-1.246.003-.008.017-.014.062-.053.178.555.362 1.092.517 1.635.06.215.158.275.371.271.587-.014 1.174-.004 1.863-.004-.557.418-1.027.785-1.513 1.131-.177.125-.209.236-.135.438.168.455.312.918.454 1.381.032.104.023.219.033.328l.003-.008c-.533-.391-1.066-.779-1.603-1.172-.562.391-1.109.773-1.658 1.154l.006.007z"/><path fill="#FBEF04" d="M67.552 496.172c.179-.563.349-1.127.542-1.686.066-.191.03-.297-.133-.412-.48-.342-.95-.701-1.416-1.127.461 0 .922.006 1.382-.002.79-.014.574.129.833-.607.152-.431.284-.869.449-1.379.199.624.383 1.158.535 1.699.063.227.165.299.395.293.576-.016 1.152-.004 1.837-.004-.558.418-1.022.777-1.499 1.117-.168.121-.22.227-.145.436.205.564.379 1.139.589 1.777-.606-.443-1.149-.842-1.71-1.252-.459.336-.914.674-1.373 1.004-.087.063-.195.094-.293.139l.007.004z"/><path fill="#FBEE03" d="M47.056 508.094c.205-.621.364-1.152.561-1.672.103-.273.077-.438-.184-.609-.461-.307-.893-.656-1.43-1.059.667 0 1.229-.014 1.789.006.263.012.372-.078.441-.328.147-.521.331-1.031.569-1.559.154.484.334.963.455 1.457.083.336.233.453.583.432.526-.031 1.057-.008 1.693-.008-.565.426-1.038.791-1.522 1.143-.148.107-.188.193-.123.377.202.576.378 1.158.586 1.809-.604-.443-1.147-.84-1.703-1.246-.553.403-1.095.802-1.715 1.257z"/><path fill="#F9ED05" d="M76.922 511.771c-.488.365-.957.725-1.436 1.072-.156.115-.202.219-.132.414.197.555.367 1.117.493 1.721-.527-.387-1.056-.771-1.615-1.182-.549.402-1.099.807-1.707 1.254.195-.6.346-1.145.554-1.668.122-.305.048-.455-.208-.627-.46-.309-.893-.656-1.423-1.051.688 0 1.273-.01 1.857.006.215.006.312-.064.372-.268.161-.545.343-1.082.548-1.717.164.504.305.93.44 1.355.198.623.196.623.849.623.45 0 .901.004 1.352.006.007.002.014.018.056.062z"/><path fill="#F9EE06" d="M77.164 506.031c.217.666.424 1.305.663 2.041-.539-.396-1.015-.73-1.469-1.088-.186-.148-.31-.135-.488.004-.446.348-.909.676-1.427.979.161-.496.295-1.006.495-1.486.146-.355.067-.551-.243-.75-.436-.281-.84-.611-1.248-1h1.311c.708 0 .706 0 .926-.67.135-.412.273-.822.435-1.307.19.602.369 1.115.511 1.637.07.262.179.361.46.35.563-.027 1.13-.01 1.798-.01-.619.466-1.161.876-1.724 1.3z"/><path fill="#FAEE06" d="M58.206 516.758c-.536.404-1.073.811-1.619 1.221.214.664.422 1.313.655 2.037-.52-.383-.982-.707-1.425-1.057-.2-.158-.341-.174-.549-.006-.442.354-.909.678-1.441 1.068.212-.65.384-1.221.588-1.779.077-.211.029-.316-.143-.439-.478-.34-.943-.697-1.392-1.117.563 0 1.125-.014 1.688.004.237.008.354-.049.424-.299.147-.533.337-1.057.543-1.688.181.561.361 1.025.476 1.504.089.373.248.518.645.486.504-.039 1.014-.008 1.521-.008.009.024.019.049.029.073zM72.523 501.305c.239-.732.45-1.379.668-2.047-.556-.414-1.104-.822-1.718-1.279h2.104c.211-.645.415-1.27.652-1.996.15.475.275.867.4 1.262.23.723.23.723.992.723h1.265c.01.021.019.045.027.066-.45.338-.894.684-1.354 1.006-.218.15-.28.289-.182.553.198.527.354 1.072.561 1.707-.515-.377-.954-.676-1.366-1.01-.237-.195-.404-.232-.662-.016-.414.351-.871.652-1.387 1.031z"/><path fill="#FBEF04" d="M69.842 516.668h2.14c-.539.404-.998.764-1.475 1.098-.196.137-.249.26-.165.49.198.543.367 1.096.582 1.748-.612-.449-1.146-.842-1.71-1.258-.537.395-1.077.789-1.711 1.252.203-.617.356-1.143.551-1.65.112-.295.065-.461-.205-.639-.455-.297-.879-.641-1.41-1.037h1.264c.863 0 .863 0 1.131-.828.115-.357.231-.717.375-1.162.228.716.429 1.347.633 1.986zM56.108 492.977h2.105c-.543.408-1.006.768-1.482 1.109-.172.123-.214.232-.139.438.196.543.363 1.096.487 1.701-.532-.391-1.063-.781-1.611-1.184-.55.404-1.09.801-1.713 1.254.201-.607.358-1.133.551-1.645.107-.285.084-.461-.191-.641-.46-.301-.886-.65-1.412-1.043.596 0 1.089-.027 1.578.008.4.027.618-.068.707-.502.097-.469.289-.92.476-1.489.232.72.434 1.343.644 1.994zM67.545 496.168c.003.002.006.004.008.006-.001-.002-.008-.006-.008-.006z"/><path fill="#F9ED06" d="M60.8 521.729c-.006.008-.013.018-.02.023.008-.006.017-.012.025-.018l-.005-.005zM64.058 521.754c.014-.012.028-.023.042-.033.006.008.012.016.018.025-.019 0-.037-.002-.057 0l-.003.008z"/></svg>