<svg xmlns="http://www.w3.org/2000/svg" width="24" height="24" viewBox="0 0 24 24">
  <path fill="currentColor" fill-rule="evenodd" d="M14,2 C16.209139,2 18,3.790861 18,6 L18,18 C18,20.209139 16.209139,22 14,22 L10,22 C7.790861,22 6,20.209139 6,18 L6,6 C6,3.790861 7.790861,2 10,2 L14,2 Z M14,4 L10,4 C8.8954305,4 8,4.8954305 8,6 L8,18 C8,19.1045695 8.8954305,20 10,20 L14,20 C15.1045695,20 16,19.1045695 16,18 L16,6 C16,4.8954305 15.1045695,4 14,4 Z M12,16 C12.5522847,16 13,16.4477153 13,17 C13,17.5522847 12.5522847,18 12,18 C11.4477153,18 11,17.5522847 11,17 C11,16.4477153 11.4477153,16 12,16 Z"/>
</svg>
