<svg version="1.1" id="Layer_1" xmlns="http://www.w3.org/2000/svg" x="0" y="0" width="102.6" height="70" xml:space="preserve"><style>.st0{fill:#ff8000}</style><g id="Takeaway.com"><g id="TakeawayCOM_Full_Colour"><g id="TakeawayCOM"><path class="st0" d="M11.1 54.9v-1.6c0-.2-.2-.3-.4-.4H2.2c-.2 0-.4.2-.4.4v1.6c0 .2.2.4.4.4H5l.2.2v8.9c0 .2.2.4.4.4h1.9c.2 0 .3-.2.4-.4v-9l.2-.1h2.8l.2-.4M15.9 57.1c-.3-.4-.7-.6-1.1-.8a5.7 5.7 0 00-3.7 0l-1.4.7v.5l.8.8h.5l.6-.4a2 2 0 011.1-.3c.4 0 .8.1 1.1.4.3.2.5.7.5 1.4l-.2.2h-.9l-1.2.1-1.2.3-1 .5-.7.8-.3 1.2.2 1.1.6.8.9.5 1.1.2 1.5-.3c.4-.1.7-.4.9-.7h.2v.4c0 .2.2.4.4.4h1.6c.2 0 .4-.2.4-.4v-3.8l-.2-2.3c0-.5-.2-.9-.5-1.3m-1.5 4.6c0 .2 0 .5-.2.7l-.4.5-.6.3-.7.1-.8-.2a.8.8 0 01-.4-.7c0-.3.1-.5.3-.7.2-.2.4-.3.7-.3l.8-.1h1.1l.2.2v.2zM40.8 57.1c-.3-.4-.7-.6-1.1-.8l-1.9-.3a5.8 5.8 0 00-3.3 1v.5l.8.8h.5l.6-.4a2 2 0 011.1-.3c.4 0 .8.1 1.1.4.3.2.5.7.5 1.4l-.2.2H38l-1.2.1-1.2.3-1 .5-.7.8-.3 1.2.2 1.1.6.8.9.5 1.1.2 1.5-.3c.4-.1.7-.4.9-.7h.2v.4c0 .2.2.4.4.4H41c.2 0 .4-.2.4-.4v-3.8c0-.8 0-1.5-.2-2.3 0-.5-.2-.9-.4-1.3m-1.6 4.6c0 .5-.2.9-.6 1.1l-.6.3-.7.1-.8-.2a.8.8 0 01-.4-.7c0-.2.1-.5.3-.6.2-.2.4-.3.7-.3l.8-.1H39l.2.2v.2zM62.2 57.1c-.3-.4-.7-.6-1.1-.8a5.7 5.7 0 00-3.7 0L56 57v.5l.8.8h.5l.6-.4a2 2 0 011.1-.3c.4 0 .8.1 1.1.4.3.2.5.7.5 1.4l-.2.2h-.9l-1.2.1-1.2.3-1 .5-.7.8-.3 1.2.2 1.1.6.8.9.5 1.1.2 1.5-.3c.4-.1.7-.4.9-.7h.2v.4c0 .2.2.4.4.4h1.6c.2 0 .4-.2.4-.4v-3.8c0-.8 0-1.5-.2-2.3 0-.5-.2-.9-.5-1.3m-1.6 4.6c0 .5-.2.9-.6 1.1l-.6.3-.7.1-.8-.2a.8.8 0 01-.4-.7c0-.2.1-.5.3-.6l.7-.4.8-.1h1.1l.2.2v.3zM32.6 57.1c-.3-.4-.7-.7-1.2-.9-.5-.2-1-.3-1.6-.3l-1.8.3c-.5.2-1 .5-1.4.9l-1 1.3a5.5 5.5 0 000 4c.2.5.5 1 1 1.3.4.4.9.7 1.4.9l1.8.3a4 4 0 001.9-.4c.5-.2.9-.5 1.2-.9v-.5l-1.1-.8-.1-.1c-.1-.1-.3-.1-.5.1l-.5.5a2 2 0 01-1 .3c-.4 0-.9-.1-1.2-.4a2 2 0 01-.6-1.4l.2-.2h5.3c.2 0 .4-.2.4-.4v-.4l-.3-1.8-.9-1.4m-1.7 2.2H28a.2.2 0 01-.2-.2l.1-.4.3-.5c.2-.1.3-.3.5-.3l.7-.1c.4 0 .8.1 1.1.4.2.2.4.6.4.9.2.1.1.2 0 .2"/><path class="st0" d="M23 60.6l-.1-.5 2.9-3.6v-.3h-2.4c-.2 0-.5.1-.6.3l-.1.2-2.2 2.9h-.2v-7.1c0-.2-.2-.3-.4-.4h-1.8c-.2 0-.3.2-.4.4v11.9c0 .2.2.3.4.4h1.8c.2 0 .4-.2.4-.4V61v-.1h.2v.1l2.2 3.3.1.2c.1.2.4.3.6.3h2.5c.1-.1.1-.1 0-.2l-2.9-4zM55.3 56.8v-.3c0-.2-.2-.3-.4-.3h-1.4c-.4 0-.7.2-.7.6v.2l-1.2 4.4-.1.1-.1-.1v-.1l-1.2-4.5v-.1a.8.8 0 00-.7-.5h-1.6c-.4 0-.7.2-.7.6v.1l-1.1 4.4c0 .1-.1.1-.2 0L44.4 57l-.1-.2a.8.8 0 00-.7-.5H42c-.2 0-.3.1-.4.3v.3l2.6 7.4v.1c.1.2.4.4.6.4h1.5c.3 0 .6-.2.7-.5l.1-.2 1.2-4.3.1-.1.1.1 1.4 4.4.1.2c.1.2.4.4.6.4h1.5c.3 0 .5-.2.6-.4l.1-.3 2.5-7.3M71.8 56.5s0-.1 0 0l-.3-.3H70c-.3 0-.5.2-.7.4V56.9l-1.4 4.5v.1l-.2.1-.2-.1-1.7-4.5v-.1l-.1-.3c-.1-.2-.4-.4-.6-.4h-1.7l-.3.2V56.7l3.3 7.9v.5l-.1.1-.2.6-.3.4-.4.3-.7.1h-1.1c-.2 0-.4.2-.4.4v1.4c0 .2.2.4.4.4H65c.5 0 1 0 1.4-.2l.9-.5.6-.8.5-1.1 3.5-9.4-.1-.3M71.4 63a1 1 0 00-.7.3c-.4.4-.3.9 0 1.3.4.4.9.3 1.3 0a1 1 0 000-1.3c-.1-.2-.3-.3-.6-.3M87 57.2c-.4-.4-.8-.7-1.3-.9a5 5 0 00-3.4 0c-.5.2-.9.5-1.3.9s-.7.8-.9 1.3a7.1 7.1 0 000 4 4 4 0 002.2 2.2 5 5 0 003.4 0c1-.4 1.8-1.2 2.2-2.1a7.1 7.1 0 000-4l-.9-1.4m-.4 4.8c-.2.7-.8 1.3-1.5 1.5a3 3 0 01-2.3 0c-.7-.3-1.2-.9-1.4-1.5l-.2-1.4.2-1.6c.2-.7.8-1.3 1.4-1.5a3 3 0 012.3 0c.7.3 1.2.9 1.5 1.5l.2 1.6-.2 1.4M74.6 58.1c.2-.3.5-.5.8-.6.4-.2.8-.2 1.2-.2l1.1.2.7.5h.5l.5-.4c.1-.1.2-.4 0-.5l-1.1-.7a5 5 0 00-3.4 0 3.8 3.8 0 00-2.1 2.2 6.8 6.8 0 000 4l.8 1.3c.4.4.8.7 1.3.9 1.1.4 2.2.4 3.3 0l1.1-.7v-.5l-.4-.6h-.5c-.5.5-1.1.7-1.8.7l-1.1-.2-.8-.6-.5-.9-.2-1.5.2-1.5c0-.3.2-.7.4-.9M100.7 57.9l-.5-1c-.2-.3-.6-.5-.9-.6-.5-.2-.9-.2-1.4-.2-.5 0-1 .1-1.5.4a3 3 0 00-.8.8v.1h-.1l-.1-.1v-.1l-.3-.2-.4-.5-.7-.4c-.6-.2-1.3-.2-2 0l-.8.3-.6.5-.2.2h-.1l-.1-.1v-.5c0-.2-.2-.4-.4-.4h-.5c-.2 0-.4.2-.4.4v7.8c0 .2.2.4.4.4h.6c.2 0 .4-.2.4-.4v-4.1l.1-1.2.4-1c.2-.3.5-.5.8-.6.3-.2.7-.2 1.1-.2.5 0 .9.2 1.2.5.2.4.4 1 .4 1.9v4.8c0 .2.2.4.4.4h.6c.2 0 .4-.2.4-.4v-4.8c0-.3 0-.6.2-1l.4-.7.6-.5.8-.2.9.2.6.5c.1.2.3.4.3.7l.1.8v5c0 .2.2.4.4.4h.6c.2 0 .4-.2.4-.4v-5.1c-.2-.4-.2-.9-.3-1.4"/></g><path id="House" class="st0" d="M74.1 23.7c-1.5-2.5-3.2-5-5-7.3v-.1l-.4-.5c-.8-1.1-.7-2-.7-2-.5-5.7-1.1-8.3-1.2-9-.1-.8-.4-1.6-1.5-1.7-.9-.1-2.3-.3-3.8-.3-1.4-.1-1.6 1.2-1.6 1.2v2.1c0 .2-.1.4-.3.4l-.3-.1a79.5 79.5 0 00-6.6-4.8c-.5-.3-1-.4-1.5-.4s-.9.2-1.3.4c-.7.4-12.4 7.1-21.4 22 0 0-.6.8-.1 1.5.2.4.7.7 1.2.7l3.7.4c.7.1.7.6.7.6-.1 6.5.3 13 1.2 19.4 0 0 .2 1.1 1.2 1.1l6.3-.2c.2 0 .3-.1.3-.3v-.1a124 124 0 01-.7-8.4 5 5 0 01-2.6-4.4c-.1-8.4.4-14.8.4-14.8s.1-.9.8-.8.7.9.7.9c-.3 3.6-.4 10.1-.4 10.1s0 1.2 1.2 1.2 1.2-1.2 1.2-1.2c0-5.1.4-10.2.4-10.2s0-.9.8-.9.7 1 .7 1c-.4 4.4-.4 10.1-.4 10.1s0 1.2 1.2 1.2 1.2-1.3 1.2-1.3c0-4.2.4-10.1.4-10.1 0-.4.3-.8.7-.8h.1c.7 0 .7.8.7.8-.3 4.8-.3 11.9-.3 14.9a5 5 0 01-2.4 4.4l-.2.4.5 8.1c0 .1.1.3.3.3H57c.2 0 .3-.1.3-.3l.6-7.1c0-.3-.3-.3-.3-.3l-2.8-.4c-1-.2-1.1-1.4-1.1-1.4-.9-12.5 5.7-20.2 5.7-20.2s.6-.8 1.6-.5c.9.3.9 1.3.9 1.3a167 167 0 01-.6 28.7c0 .2.1.4.3.4h.1c2.8.1 4.1.2 4.5.1.6-.1 1.2-.6 1.3-1.2 1.4-9.7 1.2-19.4 1.2-19.4 0-.3.3-.6.6-.6l3.8-.4c.5 0 .9-.3 1.1-.7.2-.5.2-1-.1-1.5"/></g></g></svg>